<svg width="15" height="15" viewBox="0 0 15 15" fill="none" xmlns="http://www.w3.org/2000/svg">
<g opacity="0.5" clip-path="url(#clip0_416_4315)">
<path d="M7.5 0C6.01664 0 4.56659 0.439867 3.33323 1.26398C2.09986 2.08809 1.13856 3.25943 0.570907 4.62987C0.00324962 6.00032 -0.145275 7.50832 0.144114 8.96317C0.433503 10.418 1.14781 11.7544 2.1967 12.8033C3.2456 13.8522 4.58197 14.5665 6.03682 14.8559C7.49168 15.1453 8.99968 14.9967 10.3701 14.4291C11.7406 13.8614 12.9119 12.9001 13.736 11.6668C14.5601 10.4334 15 8.98336 15 7.5C14.9979 5.51153 14.207 3.60511 12.801 2.19905C11.3949 0.792986 9.48847 0.00212709 7.5 0ZM7.5 13.9286C6.22855 13.9286 4.98565 13.5515 3.92848 12.8452C2.87131 12.1388 2.04734 11.1348 1.56078 9.9601C1.07421 8.78544 0.946907 7.49287 1.19495 6.24585C1.443 4.99883 2.05526 3.85336 2.95432 2.95431C3.85337 2.05526 4.99883 1.443 6.24585 1.19495C7.49287 0.946904 8.78544 1.07421 9.96011 1.56077C11.1348 2.04734 12.1388 2.8713 12.8452 3.92848C13.5515 4.98565 13.9286 6.22855 13.9286 7.5C13.9267 9.2044 13.2488 10.8385 12.0437 12.0436C10.8385 13.2488 9.2044 13.9267 7.5 13.9286Z" fill="black"/>
<path d="M10.0212 4.97838C9.92075 4.87795 9.78452 4.82153 9.64246 4.82153C9.50041 4.82153 9.36417 4.87795 9.26371 4.97838L7.49961 6.74249L5.7355 4.97838C5.63446 4.8808 5.49914 4.8268 5.35868 4.82802C5.21822 4.82924 5.08385 4.88558 4.98453 4.98491C4.8852 5.08423 4.82886 5.2186 4.82764 5.35906C4.82642 5.49952 4.88042 5.63485 4.978 5.73588L6.74211 7.49999L4.978 9.2641C4.92683 9.31351 4.88602 9.37263 4.85795 9.43799C4.82987 9.50335 4.81509 9.57364 4.81447 9.64477C4.81386 9.71591 4.82741 9.78645 4.85435 9.85229C4.88128 9.91812 4.92106 9.97794 4.97136 10.0282C5.02166 10.0785 5.08147 10.1183 5.14731 10.1453C5.21315 10.1722 5.28369 10.1857 5.35482 10.1851C5.42595 10.1845 5.49625 10.1697 5.56161 10.1417C5.62697 10.1136 5.68608 10.0728 5.7355 10.0216L7.49961 8.25749L9.26371 10.0216C9.36475 10.1192 9.50007 10.1732 9.64054 10.172C9.781 10.1707 9.91536 10.1144 10.0147 10.0151C10.114 9.91574 10.1704 9.78138 10.1716 9.64092C10.1728 9.50046 10.1188 9.36513 10.0212 9.2641L8.25711 7.49999L10.0212 5.73588C10.1216 5.63542 10.1781 5.49919 10.1781 5.35713C10.1781 5.21508 10.1216 5.07884 10.0212 4.97838Z" fill="black"/>
</g>
<defs>
<clipPath id="clip0_416_4315">
<rect width="15" height="15" fill="white"/>
</clipPath>
</defs>
</svg>
