<svg width="300" height="60" viewBox="0 0 300 60" fill="none" xmlns="http://www.w3.org/2000/svg">
<circle cx="30" cy="30" r="30" fill="white"/>
<path fill-rule="evenodd" clip-rule="evenodd" d="M27.1722 25.121H31.7577V27.4051C32.4183 26.0914 34.1122 24.9111 36.6568 24.9111C41.5349 24.9111 42.693 27.5261 42.693 32.324V41.2097H37.7544V33.4166C37.7544 30.6843 37.0939 29.1435 35.4123 29.1435C33.08 29.1435 32.1108 30.8041 32.1108 33.4154V41.2097H27.1722V25.121ZM18.7038 40.9998H23.6424V24.9111H18.7038V40.9998ZM24.3498 19.6651C24.35 20.079 24.2679 20.4889 24.1083 20.8708C23.9487 21.2528 23.7148 21.5992 23.4201 21.8899C22.823 22.4833 22.0149 22.8155 21.1731 22.8134C20.3327 22.8129 19.5264 22.4816 18.9285 21.8912C18.6349 21.5994 18.4017 21.2526 18.2424 20.8706C18.0831 20.4886 18.0007 20.079 18 19.6651C18 18.8292 18.3334 18.0292 18.9297 17.439C19.5271 16.8478 20.3338 16.5164 21.1743 16.5167C22.0163 16.5167 22.8238 16.8488 23.4201 17.439C24.0152 18.0292 24.3498 18.8292 24.3498 19.6651Z" fill="#45B88F"/>
<path fill-rule="evenodd" clip-rule="evenodd" d="M27.1722 25.121H31.7577V27.4051C32.4183 26.0914 34.1122 24.9111 36.6568 24.9111C41.5349 24.9111 42.693 27.5261 42.693 32.324V41.2097H37.7544V33.4166C37.7544 30.6843 37.0939 29.1435 35.4123 29.1435C33.08 29.1435 32.1108 30.8041 32.1108 33.4154V41.2097H27.1722V25.121ZM18.7038 40.9998H23.6424V24.9111H18.7038V40.9998ZM24.3498 19.6651C24.35 20.079 24.2679 20.4889 24.1083 20.8708C23.9487 21.2528 23.7148 21.5992 23.4201 21.8899C22.823 22.4833 22.0149 22.8155 21.1731 22.8134C20.3327 22.8129 19.5264 22.4816 18.9285 21.8912C18.6349 21.5994 18.4017 21.2526 18.2424 20.8706C18.0831 20.4886 18.0007 20.079 18 19.6651C18 18.8292 18.3334 18.0292 18.9297 17.439C19.5271 16.8478 20.3338 16.5164 21.1743 16.5167C22.0163 16.5167 22.8238 16.8488 23.4201 17.439C24.0152 18.0292 24.3498 18.8292 24.3498 19.6651Z" fill="#101011" fill-opacity="0.2"/>
<circle cx="110" cy="30" r="30" fill="white"/>
<path d="M122.649 22.7292C121.719 23.1415 120.72 23.42 119.669 23.5459C120.753 22.8972 121.564 21.8763 121.951 20.6735C120.932 21.2785 119.817 21.7044 118.655 21.9326C117.873 21.0979 116.838 20.5446 115.709 20.3587C114.581 20.1728 113.423 20.3647 112.415 20.9044C111.406 21.4442 110.605 22.3018 110.134 23.3439C109.663 24.3861 109.549 25.5545 109.811 26.6679C107.747 26.5642 105.728 26.0278 103.885 25.0934C102.042 24.159 100.416 22.8475 99.1121 21.244C98.6664 22.0128 98.4102 22.9041 98.4102 23.8534C98.4097 24.708 98.6201 25.5495 99.0228 26.3032C99.4256 27.057 100.008 27.6996 100.719 28.1742C99.8946 28.148 99.0886 27.9253 98.3678 27.5247V27.5915C98.3678 28.7901 98.7824 29.9518 99.5413 30.8795C100.3 31.8072 101.357 32.4437 102.532 32.6811C101.767 32.888 100.965 32.9185 100.187 32.7703C100.519 33.8016 101.164 34.7034 102.034 35.3495C102.903 35.9956 103.953 36.3537 105.036 36.3735C103.198 37.8169 100.927 38.5998 98.5896 38.5963C98.1755 38.5965 97.7618 38.5723 97.3506 38.5239C99.7232 40.0494 102.485 40.8591 105.306 40.8559C114.854 40.8559 120.074 32.9474 120.074 26.0885C120.074 25.8656 120.069 25.6406 120.059 25.4177C121.074 24.6835 121.951 23.7742 122.647 22.7325L122.649 22.7292Z" fill="#45B88F"/>
<path d="M122.649 22.7292C121.719 23.1415 120.72 23.42 119.669 23.5459C120.753 22.8972 121.564 21.8763 121.951 20.6735C120.932 21.2785 119.817 21.7044 118.655 21.9326C117.873 21.0979 116.838 20.5446 115.709 20.3587C114.581 20.1728 113.423 20.3647 112.415 20.9044C111.406 21.4442 110.605 22.3018 110.134 23.3439C109.663 24.3861 109.549 25.5545 109.811 26.6679C107.747 26.5642 105.728 26.0278 103.885 25.0934C102.042 24.159 100.416 22.8475 99.1121 21.244C98.6664 22.0128 98.4102 22.9041 98.4102 23.8534C98.4097 24.708 98.6201 25.5495 99.0228 26.3032C99.4256 27.057 100.008 27.6996 100.719 28.1742C99.8946 28.148 99.0886 27.9253 98.3678 27.5247V27.5915C98.3678 28.7901 98.7824 29.9518 99.5413 30.8795C100.3 31.8072 101.357 32.4437 102.532 32.6811C101.767 32.888 100.965 32.9185 100.187 32.7703C100.519 33.8016 101.164 34.7034 102.034 35.3495C102.903 35.9956 103.953 36.3537 105.036 36.3735C103.198 37.8169 100.927 38.5998 98.5896 38.5963C98.1755 38.5965 97.7618 38.5723 97.3506 38.5239C99.7232 40.0494 102.485 40.8591 105.306 40.8559C114.854 40.8559 120.074 32.9474 120.074 26.0885C120.074 25.8656 120.069 25.6406 120.059 25.4177C121.074 24.6835 121.951 23.7742 122.647 22.7325L122.649 22.7292Z" fill="#101011" fill-opacity="0.2"/>
<circle cx="190" cy="30" r="30" fill="white"/>
<path d="M198.35 17.7862C198.35 17.6149 198.282 17.4507 198.161 17.3297C198.04 17.2086 197.876 17.1406 197.705 17.1406H194.477C192.851 17.0596 191.26 17.6253 190.05 18.714C188.841 19.8027 188.111 21.3259 188.021 22.9508V26.437H184.793C184.622 26.437 184.458 26.505 184.337 26.6261C184.215 26.7472 184.147 26.9114 184.147 27.0826V30.4396C184.147 30.6109 184.215 30.7751 184.337 30.8961C184.458 31.0172 184.622 31.0852 184.793 31.0852H188.021V39.7361C188.021 39.9073 188.089 40.0715 188.21 40.1926C188.331 40.3136 188.495 40.3816 188.667 40.3816H192.54C192.711 40.3816 192.876 40.3136 192.997 40.1926C193.118 40.0715 193.186 39.9073 193.186 39.7361V31.0852H196.569C196.712 31.0873 196.852 31.0414 196.967 30.9549C197.081 30.8684 197.164 30.7461 197.201 30.6075L198.131 27.2504C198.157 27.155 198.16 27.055 198.141 26.9581C198.122 26.8612 198.081 26.7699 198.021 26.6913C197.961 26.6127 197.884 26.549 197.796 26.5049C197.707 26.4608 197.61 26.4376 197.511 26.437H193.186V22.9508C193.218 22.6312 193.368 22.3351 193.607 22.1202C193.845 21.9053 194.156 21.7872 194.477 21.7888H197.705C197.876 21.7888 198.04 21.7208 198.161 21.5997C198.282 21.4786 198.35 21.3144 198.35 21.1432V17.7862Z" fill="#45B88F"/>
<path d="M198.35 17.7862C198.35 17.6149 198.282 17.4507 198.161 17.3297C198.04 17.2086 197.876 17.1406 197.705 17.1406H194.477C192.851 17.0596 191.26 17.6253 190.05 18.714C188.841 19.8027 188.111 21.3259 188.021 22.9508V26.437H184.793C184.622 26.437 184.458 26.505 184.337 26.6261C184.215 26.7472 184.147 26.9114 184.147 27.0826V30.4396C184.147 30.6109 184.215 30.7751 184.337 30.8961C184.458 31.0172 184.622 31.0852 184.793 31.0852H188.021V39.7361C188.021 39.9073 188.089 40.0715 188.21 40.1926C188.331 40.3136 188.495 40.3816 188.667 40.3816H192.54C192.711 40.3816 192.876 40.3136 192.997 40.1926C193.118 40.0715 193.186 39.9073 193.186 39.7361V31.0852H196.569C196.712 31.0873 196.852 31.0414 196.967 30.9549C197.081 30.8684 197.164 30.7461 197.201 30.6075L198.131 27.2504C198.157 27.155 198.16 27.055 198.141 26.9581C198.122 26.8612 198.081 26.7699 198.021 26.6913C197.961 26.6127 197.884 26.549 197.796 26.5049C197.707 26.4608 197.61 26.4376 197.511 26.437H193.186V22.9508C193.218 22.6312 193.368 22.3351 193.607 22.1202C193.845 21.9053 194.156 21.7872 194.477 21.7888H197.705C197.876 21.7888 198.04 21.7208 198.161 21.5997C198.282 21.4786 198.35 21.3144 198.35 21.1432V17.7862Z" fill="#101011" fill-opacity="0.2"/>
<circle cx="270" cy="30" r="30" fill="white"/>
<path d="M281.849 26.3274C281.835 25.325 281.648 24.3327 281.294 23.3947C280.988 22.6035 280.519 21.885 279.919 21.285C279.319 20.685 278.601 20.2168 277.81 19.9102C276.884 19.5626 275.906 19.3747 274.917 19.3544C273.644 19.2975 273.24 19.2816 270.008 19.2816C266.777 19.2816 266.362 19.2816 265.098 19.3544C264.11 19.3749 263.132 19.5628 262.207 19.9102C261.416 20.2166 260.697 20.6847 260.097 21.2847C259.497 21.8848 259.029 22.6034 258.722 23.3947C258.374 24.3199 258.187 25.2979 258.168 26.2863C258.111 27.5608 258.094 27.9644 258.094 31.1961C258.094 34.4278 258.094 34.8407 258.168 36.1059C258.188 37.0958 258.374 38.0725 258.722 39.0002C259.029 39.7912 259.498 40.5096 260.098 41.1093C260.698 41.7091 261.417 42.1771 262.208 42.4833C263.131 42.8449 264.109 43.0463 265.1 43.0788C266.374 43.1357 266.778 43.153 270.01 43.153C273.241 43.153 273.656 43.153 274.919 43.0788C275.908 43.0594 276.886 42.8719 277.812 42.5243C278.603 42.2174 279.322 41.7491 279.922 41.1491C280.521 40.5492 280.99 39.8308 281.297 39.0399C281.645 38.1135 281.831 37.1368 281.851 36.1456C281.908 34.8725 281.925 34.4689 281.925 31.2358C281.923 28.0041 281.923 27.5938 281.849 26.3274ZM270 37.3075C266.62 37.3075 263.882 34.5694 263.882 31.1895C263.882 27.8096 266.62 25.0715 270 25.0715C271.623 25.0715 273.179 25.716 274.326 26.8634C275.474 28.0107 276.118 29.5669 276.118 31.1895C276.118 32.8121 275.474 34.3682 274.326 35.5156C273.179 36.663 271.623 37.3075 270 37.3075ZM276.362 26.2718C276.174 26.2719 275.989 26.2352 275.816 26.1635C275.643 26.0919 275.485 25.9868 275.353 25.8543C275.22 25.7218 275.115 25.5645 275.043 25.3913C274.972 25.2181 274.935 25.0325 274.935 24.8452C274.935 24.6579 274.972 24.4725 275.044 24.2995C275.115 24.1265 275.22 23.9693 275.353 23.8369C275.485 23.7044 275.642 23.5994 275.815 23.5277C275.989 23.4561 276.174 23.4192 276.361 23.4192C276.548 23.4192 276.734 23.4561 276.907 23.5277C277.08 23.5994 277.237 23.7044 277.369 23.8369C277.502 23.9693 277.607 24.1265 277.679 24.2995C277.75 24.4725 277.787 24.6579 277.787 24.8452C277.787 25.6339 277.149 26.2718 276.362 26.2718Z" fill="#45B88F"/>
<path d="M281.849 26.3274C281.835 25.325 281.648 24.3327 281.294 23.3947C280.988 22.6035 280.519 21.885 279.919 21.285C279.319 20.685 278.601 20.2168 277.81 19.9102C276.884 19.5626 275.906 19.3747 274.917 19.3544C273.644 19.2975 273.24 19.2816 270.008 19.2816C266.777 19.2816 266.362 19.2816 265.098 19.3544C264.11 19.3749 263.132 19.5628 262.207 19.9102C261.416 20.2166 260.697 20.6847 260.097 21.2847C259.497 21.8848 259.029 22.6034 258.722 23.3947C258.374 24.3199 258.187 25.2979 258.168 26.2863C258.111 27.5608 258.094 27.9644 258.094 31.1961C258.094 34.4278 258.094 34.8407 258.168 36.1059C258.188 37.0958 258.374 38.0725 258.722 39.0002C259.029 39.7912 259.498 40.5096 260.098 41.1093C260.698 41.7091 261.417 42.1771 262.208 42.4833C263.131 42.8449 264.109 43.0463 265.1 43.0788C266.374 43.1357 266.778 43.153 270.01 43.153C273.241 43.153 273.656 43.153 274.919 43.0788C275.908 43.0594 276.886 42.8719 277.812 42.5243C278.603 42.2174 279.322 41.7491 279.922 41.1491C280.521 40.5492 280.99 39.8308 281.297 39.0399C281.645 38.1135 281.831 37.1368 281.851 36.1456C281.908 34.8725 281.925 34.4689 281.925 31.2358C281.923 28.0041 281.923 27.5938 281.849 26.3274ZM270 37.3075C266.62 37.3075 263.882 34.5694 263.882 31.1895C263.882 27.8096 266.62 25.0715 270 25.0715C271.623 25.0715 273.179 25.716 274.326 26.8634C275.474 28.0107 276.118 29.5669 276.118 31.1895C276.118 32.8121 275.474 34.3682 274.326 35.5156C273.179 36.663 271.623 37.3075 270 37.3075ZM276.362 26.2718C276.174 26.2719 275.989 26.2352 275.816 26.1635C275.643 26.0919 275.485 25.9868 275.353 25.8543C275.22 25.7218 275.115 25.5645 275.043 25.3913C274.972 25.2181 274.935 25.0325 274.935 24.8452C274.935 24.6579 274.972 24.4725 275.044 24.2995C275.115 24.1265 275.22 23.9693 275.353 23.8369C275.485 23.7044 275.642 23.5994 275.815 23.5277C275.989 23.4561 276.174 23.4192 276.361 23.4192C276.548 23.4192 276.734 23.4561 276.907 23.5277C277.08 23.5994 277.237 23.7044 277.369 23.8369C277.502 23.9693 277.607 24.1265 277.679 24.2995C277.75 24.4725 277.787 24.6579 277.787 24.8452C277.787 25.6339 277.149 26.2718 276.362 26.2718Z" fill="#101011" fill-opacity="0.2"/>
<path d="M270.001 35.1637C272.196 35.1637 273.976 33.3845 273.976 31.1896C273.976 28.9947 272.196 27.2155 270.001 27.2155C267.807 27.2155 266.027 28.9947 266.027 31.1896C266.027 33.3845 267.807 35.1637 270.001 35.1637Z" fill="#45B88F"/>
<path d="M270.001 35.1637C272.196 35.1637 273.976 33.3845 273.976 31.1896C273.976 28.9947 272.196 27.2155 270.001 27.2155C267.807 27.2155 266.027 28.9947 266.027 31.1896C266.027 33.3845 267.807 35.1637 270.001 35.1637Z" fill="#101011" fill-opacity="0.2"/>
</svg>
