<svg width="50" height="50" viewBox="0 0 50 50" fill="none" xmlns="http://www.w3.org/2000/svg">
<path d="M28.6137 15.1721L34.7959 3.73221C33.5738 9.31846 32.4108 13.7054 31.5049 17.1126C30.9519 19.1917 30.4745 20.9892 30.1236 22.5317C30.0726 22.752 30.1236 22.9846 30.2623 23.1641C31.0866 24.2333 31.5212 25.5166 31.5212 26.8714C31.5212 28.2119 31.0928 29.479 30.3011 30.5277C29.1973 29.0423 27.4284 28.0773 25.439 28.0773C23.4497 28.0773 21.6808 29.0424 20.5749 30.5277C19.7833 29.479 19.3548 28.2119 19.3548 26.8714C19.3548 23.613 21.9032 20.9441 25.1573 20.7952C25.4246 20.783 25.6653 20.632 25.7918 20.3974L28.6034 15.1925C28.6075 15.1844 28.6115 15.1783 28.6156 15.1721L28.6137 15.1721ZM25.439 29.5971C22.9355 29.5971 20.8993 31.6333 20.8993 34.1368C20.8993 36.6403 22.9355 38.6745 25.439 38.6745C27.9425 38.6745 29.9767 36.6383 29.9767 34.1368C29.9767 31.6354 27.9404 29.5971 25.439 29.5971ZM34.1289 17.1084L40.9702 10.2633C39.4217 8.81065 37.6567 7.56194 35.7146 6.57647C34.821 10.4674 33.9763 13.7093 33.2642 16.4008C33.5641 16.6253 33.8518 16.8599 34.1272 17.1068L34.1289 17.1084ZM35.6428 35.9752C35.6428 38.4787 37.679 40.5149 40.1825 40.5149C42.686 40.5149 44.7202 38.4787 44.7202 35.9752C44.7202 33.4717 42.6839 31.4375 40.1825 31.4375C37.681 31.4375 35.6428 33.4737 35.6428 35.9752ZM24.6782 4.14015C18.9796 4.32786 13.8055 6.62322 9.90844 10.267L16.7498 17.112C18.884 15.2105 21.6425 13.9965 24.6787 13.823L24.6782 4.14015ZM38.4873 26.1122H48.1686C47.9809 20.5359 45.7406 15.3048 42.0433 11.3404L35.2019 18.1838C37.1443 20.365 38.3154 23.1541 38.4869 26.1127L38.4873 26.1122ZM40.1828 42.0347C35.6288 42.0347 31.8769 45.5441 31.4909 49.998H48.8743C48.4887 45.542 44.737 42.0347 40.1828 42.0347ZM10.6878 42.0387C6.13377 42.0387 2.38547 45.546 2 50H19.3777C18.9921 45.546 15.2419 42.0387 10.6899 42.0387H10.6878ZM6.15012 35.9809C6.15012 38.4823 8.18634 40.5185 10.6878 40.5185C13.1893 40.5185 15.2255 38.4823 15.2255 35.9809C15.2255 33.4794 13.1893 31.4432 10.6878 31.4432C8.18634 31.4432 6.15012 33.4794 6.15012 35.9809ZM25.4395 40.1962C22.5606 40.1962 19.9306 41.5734 18.2941 43.9096C19.3735 45.1072 20.1753 46.5579 20.5956 48.1636H30.2727C30.695 46.5579 31.4969 45.1031 32.5782 43.9055C30.9399 41.5734 28.3123 40.1962 25.4395 40.1962ZM26.1985 4.14178V13.823C26.6494 13.8496 27.0963 13.8985 27.5369 13.9679L32.2868 5.17615C30.3179 4.55386 28.2776 4.20698 26.1986 4.13965L26.1985 4.14178ZM6.58056 9.17728C6.76419 9.17728 6.94782 9.10791 7.0886 8.96917C13.4891 2.66264 22.891 0.0609502 31.6258 2.18315C32.0134 2.277 32.4052 2.03829 32.5011 1.65064C32.5949 1.26298 32.3562 0.87123 31.9686 0.775331C27.4288 -0.326457 22.6404 -0.253018 18.1207 0.989567C13.5831 2.23823 9.41675 4.63972 6.07284 7.93698C5.7872 8.21651 5.78516 8.6756 6.06468 8.96121C6.20546 9.10403 6.39286 9.17728 6.58056 9.17728ZM15.6763 18.1874L8.83282 11.3423C5.18674 15.2393 2.8914 20.4135 2.70388 26.112H12.3872C12.5627 23.0801 13.7767 20.3216 15.6783 18.1874H15.6763Z" fill="#07A169" fill-opacity="0.75"/>
</svg>
