<svg width="61" height="50" viewBox="0 0 61 50" fill="none" xmlns="http://www.w3.org/2000/svg">
<path d="M57.0504 27.7564C55.3838 27.7564 53.9735 28.7179 53.4607 30.1923H45.1274L41.9222 24.8717L45.0632 19.8076H53.3966C53.9735 21.2179 55.3838 22.2435 56.9863 22.2435C59.3581 22.2435 61.3453 19.9999 60.8325 17.4999C60.512 16.0256 59.3581 14.7435 57.8197 14.4871C55.8966 14.1025 54.0376 15.1923 53.3966 16.923H44.2299C43.7812 16.923 43.2684 17.1794 43.012 17.6281L39.4863 23.2692C39.5504 23.8461 39.6145 24.423 39.6145 24.9358C39.6145 25.5128 39.5504 26.0897 39.4863 26.6666L43.012 32.4358C43.2684 32.8205 43.7812 33.141 44.2299 33.141H53.3966C53.9735 34.6153 55.3838 35.5769 56.9863 35.5769C59.1658 35.5769 60.8966 33.8461 60.8966 31.6666C60.8966 29.4871 59.2299 27.7564 57.0504 27.7564Z" fill="#07A169" fill-opacity="0.75"/>
<path d="M10.3205 25C10.3205 16.9231 16.859 10.3846 24.9359 10.3846C26.7308 10.3846 28.5256 10.7051 30.1282 11.3462V3.26923C30.1282 2.82051 30.1282 2.5 30.0641 2.11538C29.8718 0.897436 28.8462 0 27.6282 0H22.3077C21.0256 0 20 0.897436 19.8718 2.11538L19.2308 6.66667C17.8205 7.24359 17.5 7.37179 16.0897 7.94872L12.4359 5.19231C11.4744 4.48718 10.0641 4.55128 9.23077 5.38462L5.51282 9.16667C4.61539 10.0641 4.55128 11.4103 5.32051 12.3718L8.07692 16.0897C7.5 17.5 7.3718 17.8205 6.73077 19.2308L2.11538 19.8718C0.961538 20.0641 0 21.0897 0 22.3077V27.5641C0 28.7821 0.897436 29.8718 2.11538 30L6.66667 30.641C7.24359 32.0513 7.3718 32.3718 8.01282 33.7821L5.19231 37.6282C4.42308 38.5897 4.55128 40 5.38462 40.8333L9.16667 44.6154C10 45.4487 11.4103 45.5769 12.3718 44.8077L16.0897 41.9872C17.5 42.5641 17.8205 42.6923 19.2308 43.3333L19.8718 47.8846C20.0641 49.0385 21.0897 50 22.3077 50H27.6282C28.9103 50 29.9359 49.1026 30.0641 47.8846C30.1282 47.5641 30.1282 47.1154 30.1282 46.7308V38.718C28.5256 39.359 26.7949 39.6795 25 39.6795C16.859 39.6154 10.3205 33.0769 10.3205 25Z" fill="#07A169" fill-opacity="0.75"/>
<path d="M46.5388 37.1154C44.5516 36.6667 42.7567 37.8205 42.1157 39.4872H38.3336L35.5772 35.0641C34.8721 35.8333 34.1029 36.4743 33.2695 37.0513L36.2183 41.7949C36.4747 42.2436 36.9875 42.5 37.5003 42.5H42.1157C42.7567 43.9102 44.167 44.9359 45.7054 44.9359C48.1413 44.9359 50.1285 42.6923 49.5516 40.1282C49.167 38.6538 48.0131 37.3718 46.5388 37.1154Z" fill="#07A169" fill-opacity="0.75"/>
<path d="M38.3976 10.4488H42.1796C42.8207 12.1155 44.6796 13.2053 46.6027 12.8206C48.0771 12.5001 49.295 11.2822 49.6155 9.80781C50.1925 7.24371 48.2053 5.00012 45.7694 5.00012C44.1668 5.00012 42.6925 6.02576 42.1796 7.43602H37.5643C37.0514 7.43602 36.6027 7.69243 36.3463 8.14115L33.3335 13.0129C34.1668 13.5899 34.9361 14.2309 35.5771 15.0001L38.3976 10.4488Z" fill="#07A169" fill-opacity="0.75"/>
<path d="M24.9356 13.3975C18.5253 13.3975 13.333 18.5898 13.333 25C13.333 31.4103 18.5253 36.6026 24.9356 36.6026C31.3458 36.6026 36.5381 31.4103 36.5381 25C36.5381 18.5898 31.3458 13.3975 24.9356 13.3975Z" fill="#07A169" fill-opacity="0.75"/>
</svg>
