<svg width="50" height="50" viewBox="0 0 50 50" fill="none" xmlns="http://www.w3.org/2000/svg">
<g clip-path="url(#clip0_318_2414)">
<path d="M7.62268 25.3185C7.62268 25.7158 7.3004 26.0381 6.90313 26.0381H2.71955C2.32227 26.0381 2 25.7158 2 25.3185C2 24.9212 2.32228 24.599 2.71955 24.599H6.90313C7.3004 24.599 7.62268 24.9212 7.62268 25.3185ZM26.0351 5.80917C26.4324 5.80917 26.7546 5.48689 26.7546 5.08962L26.7526 0.719549C26.7526 0.322274 26.4303 0 26.0331 0C25.6358 0 25.3135 0.322279 25.3135 0.719549L25.3155 5.09164C25.3155 5.48892 25.6378 5.81119 26.0351 5.81119V5.80917ZM9.16898 7.43475C8.88926 7.15504 8.43319 7.15504 8.15148 7.43475C7.87177 7.71447 7.87177 8.17054 8.15148 8.45225L11.2243 11.5251C11.3642 11.6649 11.5486 11.7359 11.7331 11.7359C11.9175 11.7359 12.102 11.6649 12.2418 11.5251C12.5215 11.2454 12.5215 10.7893 12.2418 10.5076L9.16898 7.43475ZM42.9214 7.41651L39.8324 10.5055C39.5527 10.7852 39.5527 11.2413 39.8324 11.523C39.9723 11.6629 40.1567 11.7338 40.3412 11.7338C40.5256 11.7338 40.7101 11.6629 40.8499 11.523L43.9389 8.43401C44.2187 8.15429 44.2187 7.69822 43.9389 7.41651C43.6592 7.1368 43.2031 7.1368 42.9214 7.41651ZM49.5819 24.5965H45.3943C44.997 24.5965 44.6748 24.9188 44.6748 25.3161C44.6748 25.7134 44.997 26.0356 45.3943 26.0356H49.5819C49.9792 26.0356 50.3015 25.7134 50.3015 25.3161C50.3015 24.9188 49.9792 24.5965 49.5819 24.5965ZM26.0491 8.41331C18.5718 8.41331 12.4868 14.4963 12.4868 21.9715C12.4868 25.6929 13.9644 29.1628 16.646 31.7412C17.2561 32.329 17.7507 32.8337 18.1682 33.2999C18.4196 33.2371 18.6851 33.2026 18.9567 33.2026H22.8038V26.1669H21.2937C19.3094 26.1669 17.8682 24.8028 17.8682 22.9218C17.8682 21.1341 19.3236 19.6808 21.1133 19.6808C22.9923 19.6808 24.3584 21.1239 24.3584 23.1103V24.6143H27.7414V23.1103C27.7414 21.124 29.1055 19.6808 30.9865 19.6808C32.7762 19.6808 34.2316 21.1341 34.2316 22.9218C34.2316 24.8008 32.7905 26.1669 30.806 26.1669H29.296V33.2026H33.1431C33.4147 33.2026 33.6803 33.2371 33.9316 33.2999C34.3471 32.8357 34.8416 32.331 35.4538 31.7412C38.1354 29.1609 39.613 25.693 39.613 21.9715C39.613 14.4963 33.53 8.41331 26.0549 8.41331H26.0491ZM32.6754 22.9242C32.6754 21.9918 31.9153 21.2337 30.9829 21.2337C29.8134 21.2337 29.2904 22.1762 29.2904 23.1127V24.6166H30.8005C31.7349 24.6166 32.6754 24.0937 32.6754 22.9242ZM26.2094 50C27.831 50 29.191 48.8669 29.5437 47.3528H22.8791C23.2297 48.8669 24.5898 50 26.2114 50H26.2094ZM21.1117 21.2336C20.1773 21.2336 19.4192 21.9917 19.4192 22.9241C19.4192 24.0936 20.3618 24.6165 21.2942 24.6165H22.8042V23.1126C22.8042 22.1781 22.2813 21.2336 21.1117 21.2336ZM24.3568 26.1671V33.2028H27.7397V26.1671H24.3568ZM19.3138 44.9205C19.3138 45.4049 19.707 45.8001 20.1894 45.8001H32.2314C32.7158 45.8001 33.1111 45.4049 33.1111 44.9205V39.691H19.3137L19.3138 44.9205ZM33.1397 34.7533H18.9594C18.025 34.7533 17.2669 35.5133 17.2669 36.4457C17.2669 37.3802 18.027 38.1382 18.9594 38.1382H33.1397C34.0741 38.1382 34.8322 37.3781 34.8322 36.4457C34.8322 35.5113 34.0721 34.7533 33.1397 34.7533Z" fill="#07A169" fill-opacity="0.75"/>
</g>
<defs>
<clipPath id="clip0_318_2414">
<rect width="50" height="50" fill="white"/>
</clipPath>
</defs>
</svg>
