<svg width="34" height="28" viewBox="0 0 34 28" fill="none" xmlns="http://www.w3.org/2000/svg">
<path d="M2 5.66671C2 4.78265 2.35119 3.93481 2.97631 3.30968C3.60143 2.68456 4.44928 2.33337 5.33333 2.33337H28.6667C29.5507 2.33337 30.3986 2.68456 31.0237 3.30968C31.6488 3.93481 32 4.78265 32 5.66671V22.3334C32 23.2174 31.6488 24.0653 31.0237 24.6904C30.3986 25.3155 29.5507 25.6667 28.6667 25.6667H5.33333C4.44928 25.6667 3.60143 25.3155 2.97631 24.6904C2.35119 24.0653 2 23.2174 2 22.3334V5.66671Z" stroke="#45B88F" stroke-width="3.39394" stroke-linecap="round" stroke-linejoin="round"/>
<path d="M2 5.66663L17 15.6666L32 5.66663" stroke="#45B88F" stroke-width="3.39394" stroke-linecap="round" stroke-linejoin="round"/>
</svg>
