<svg width="70" height="71" viewBox="0 0 70 71" fill="none" xmlns="http://www.w3.org/2000/svg">
<circle cx="35" cy="35.748" r="35" fill="#07A169" fill-opacity="0.8"/>
<path d="M39.547 28.0355C39.547 25.5525 37.5323 23.5379 35.0493 23.5379C32.5663 23.5379 30.5517 25.5525 30.5517 28.0355C30.5517 30.5186 32.5663 32.5332 35.0493 32.5332C37.5323 32.5332 39.547 30.5186 39.547 28.0355ZM32.3322 28.0355C32.3322 26.537 33.5509 25.3183 35.0495 25.3183C36.5481 25.3183 37.7667 26.537 37.7667 28.0355C37.7667 29.5341 36.5481 30.7528 35.0495 30.7528C33.5509 30.7528 32.3322 29.5341 32.3322 28.0355Z" fill="white"/>
<path d="M28.9596 23.0239C28.5387 22.7421 28.0227 22.883 27.7409 23.2581C26.8041 24.6633 26.3356 26.3028 26.3356 27.9901C26.3356 29.6772 26.8041 31.3167 27.7409 32.7222C27.9276 33.0039 28.2093 33.143 28.4911 33.143C28.6778 33.143 28.8187 33.0954 28.9596 33.0021C29.3804 32.7203 29.4756 32.2062 29.2414 31.7835C28.4911 30.66 28.1179 29.348 28.1179 27.9885C28.1179 26.6308 28.493 25.3188 29.2414 24.1934C29.4756 23.8677 29.3804 23.3038 28.9596 23.0239Z" fill="white"/>
<path d="M41.1386 33.0472C41.2795 33.1405 41.4662 33.1881 41.6071 33.1881C41.8889 33.1881 42.1688 33.0472 42.3573 32.7673C43.2942 31.362 43.7626 29.7225 43.7626 28.0352C43.7626 26.3479 43.2942 24.6629 42.3573 23.3032C42.0755 22.8823 41.5595 22.7414 41.1386 23.0232C40.7178 23.305 40.6226 23.8192 40.9044 24.2419C41.6547 25.3653 42.0279 26.6773 42.0279 28.0369C42.0279 29.3946 41.6528 30.7065 40.9044 31.8319C40.6226 32.2509 40.7178 32.7672 41.1386 33.0472Z" fill="white"/>
<path d="M44.0902 35.9987C44.2311 36.1396 44.4178 36.1854 44.652 36.1854C44.9338 36.1854 45.168 36.0445 45.3546 35.8578C47.0417 33.6566 47.9785 30.8462 47.9785 28.0356C47.9785 25.1774 47.0893 22.4623 45.3546 20.2133C45.0728 19.8382 44.5111 19.7449 44.0902 20.0267C43.7151 20.3085 43.6218 20.8702 43.9036 21.2911C45.4022 23.2581 46.1981 25.6002 46.1981 28.0355C46.1981 30.5185 45.4022 32.8607 43.9036 34.7799C43.6675 35.155 43.7151 35.7169 44.0902 35.9987Z" fill="white"/>
<path d="M24.7437 20.2133C23.0109 22.4621 22.1198 25.1795 22.1198 28.0355C22.1198 30.8937 23.0091 33.6089 24.7437 35.8578C24.9304 36.092 25.1646 36.1853 25.4464 36.1853C25.633 36.1853 25.8215 36.1378 25.9624 35.9987C26.3375 35.7169 26.4308 35.1551 26.149 34.7343C24.6505 32.7673 23.8545 30.4252 23.8545 27.9899C23.8545 25.5545 24.6505 23.1646 26.149 21.2455C26.4308 20.8704 26.3833 20.3087 25.9624 19.9811C25.5873 19.7451 25.0256 19.7906 24.7437 20.2133Z" fill="white"/>
<path d="M50.273 13.7485H19.8253C17.1556 13.7485 15 15.904 15 18.5738V37.4973C15 40.1669 17.1555 42.3225 19.8253 42.3225H23.5251C23.9935 42.3225 24.4143 41.9474 24.4143 41.4333C24.4143 40.9648 24.0392 40.544 23.5251 40.544H19.8253C18.1382 40.544 16.7805 39.1863 16.7805 37.4992V18.5739C16.7805 16.8868 18.1382 15.5291 19.8253 15.5291H50.273C51.9601 15.5291 53.3177 16.8868 53.3177 18.5739V37.4974C53.3177 39.1844 51.9601 40.5421 50.273 40.5421H46.5732C46.1047 40.5421 45.6839 40.9172 45.6839 41.4314C45.6839 41.8998 46.059 42.3207 46.5732 42.3207H50.273C52.9426 42.3207 55.0982 40.1651 55.0982 37.4954V18.5733C55.0982 15.9037 52.9427 13.7485 50.273 13.7485Z" fill="white"/>
<path d="M35.0491 37.4518C29.3348 37.4518 24.6505 42.0885 24.6505 47.8504C24.6505 53.6124 29.3348 58.249 35.0491 58.249C40.7634 58.249 45.4477 53.6124 45.4477 47.8504C45.4477 42.0885 40.7634 37.4518 35.0491 37.4518ZM35.0491 56.469C30.3171 56.469 26.431 52.6283 26.431 47.8509C26.431 43.1189 30.2717 39.2328 35.0491 39.2328C39.7812 39.2328 43.6672 43.0735 43.6672 47.8509C43.6672 52.6283 39.7807 56.469 35.0491 56.469Z" fill="white"/>
<path d="M39.0308 45.7425L34.9558 43.3528C34.1599 42.8844 33.223 42.8844 32.4728 43.3528C31.6768 43.8212 31.2084 44.6172 31.2084 45.5083V50.3336C31.2084 51.2228 31.6768 52.0664 32.4728 52.4891C32.8479 52.7233 33.2687 52.8166 33.6914 52.8166C34.1123 52.8166 34.5807 52.7233 34.9558 52.4415L39.0308 50.0518C39.781 49.5833 40.2494 48.7874 40.2494 47.8963C40.2494 46.9594 39.781 46.1634 39.0308 45.7425ZM38.1415 48.4598L34.0666 50.8495C33.739 51.0361 33.4572 50.8971 33.3639 50.8495C33.2706 50.8019 32.9888 50.6153 32.9888 50.2402V45.4608C32.9888 45.0857 33.223 44.8991 33.3639 44.8515C33.4115 44.8039 33.5506 44.7581 33.739 44.7581C33.8323 44.7581 33.9732 44.8057 34.1141 44.8515L38.1891 47.2412C38.5166 47.4278 38.5166 47.7096 38.5166 47.8505C38.469 47.9914 38.4214 48.2713 38.1415 48.4598Z" fill="white"/>
</svg>
