<svg width="70" height="71" viewBox="0 0 70 71" fill="none" xmlns="http://www.w3.org/2000/svg">
<circle cx="35" cy="35.748" r="35" fill="#07A169" fill-opacity="0.8"/>
<path d="M27.216 19.7481C26.8958 19.7466 26.5877 19.8728 26.3622 20.0998C26.1353 20.3267 26.0075 20.6349 26.009 20.955V22.1529H23.6042C21.6263 22.1529 20 23.7897 20 25.7676V47.4063C20 49.3843 21.6278 51.018 23.6042 51.018H47.6569C49.6349 51.018 51.2612 49.3843 51.2612 47.4063L51.2627 25.7676C51.2627 23.7897 49.6349 22.1529 47.6584 22.1529H45.2536V20.955H45.2521C45.2536 20.6349 45.1274 20.3268 44.9004 20.0998C44.6735 19.8743 44.3654 19.7466 44.0452 19.7481C43.7266 19.7496 43.4215 19.8774 43.196 20.1043C42.9721 20.3298 42.8473 20.6364 42.8473 20.955V22.1529H39.6414V20.955H39.6429C39.6429 20.6349 39.5167 20.3267 39.2897 20.0998C39.0628 19.8743 38.7562 19.7466 38.4345 19.7481C38.1159 19.7496 37.8107 19.8773 37.5868 20.1043C37.3613 20.3297 37.2366 20.6363 37.2381 20.955V22.1529H34.0262V20.955H34.0247C34.0262 20.6363 33.8999 20.3297 33.676 20.1043C33.452 19.8773 33.1454 19.7496 32.8268 19.7481C32.5066 19.7466 32.1985 19.8743 31.9715 20.0998C31.7461 20.3267 31.6183 20.6348 31.6198 20.955V22.1529H28.4139V20.955C28.4154 20.6364 28.2907 20.3297 28.0652 20.1043C27.8413 19.8774 27.5361 19.7496 27.216 19.7481ZM23.6042 24.5608H26.0091V25.7677C26.0106 26.0863 26.1383 26.3914 26.3653 26.6169C26.5907 26.8408 26.8973 26.9671 27.216 26.9656C27.8773 26.9626 28.4124 26.4275 28.4139 25.7677V24.5608H31.6198V25.7677C31.6213 26.0863 31.749 26.3914 31.976 26.6169C32.2014 26.8408 32.508 26.9671 32.8267 26.9656C33.488 26.9626 34.0216 26.4275 34.0246 25.7677V24.5608H37.2365L37.238 25.7677C37.2395 26.4275 37.7746 26.9626 38.4344 26.9656C38.7546 26.9671 39.0597 26.8408 39.2866 26.6169C39.5136 26.3914 39.6413 26.0863 39.6428 25.7677V24.5608H42.8487L42.8472 25.7677C42.8502 26.4275 43.3853 26.9626 44.0451 26.9656C44.3638 26.9671 44.6704 26.8408 44.8973 26.6169C45.1228 26.3914 45.252 26.0863 45.252 25.7677V24.5608H47.6568C48.3437 24.5608 48.8547 25.0808 48.8547 25.7677V30.5773H22.4049V25.7677C22.4049 25.0808 22.9174 24.5608 23.6042 24.5608ZM22.4048 32.9822H48.8547V47.4065C48.8547 48.0934 48.3437 48.6134 47.6568 48.6134H23.6041C22.9172 48.6134 22.4046 48.0933 22.4046 47.4065L22.4048 32.9822ZM27.2175 36.5865H27.216C26.8974 36.585 26.5908 36.7097 26.3653 36.9352C26.1384 37.1591 26.0106 37.4642 26.0091 37.7843C26.0076 38.1045 26.1354 38.4126 26.3623 38.6381C26.5878 38.865 26.8959 38.9928 27.2161 38.9913H29.6209C29.941 38.9898 30.2461 38.862 30.4701 38.6351C30.6955 38.4096 30.8203 38.103 30.8188 37.7844C30.8173 37.123 30.2822 36.588 29.6209 36.5865L27.2175 36.5865ZM34.4351 36.5865H34.4335C33.7692 36.5835 33.2296 37.12 33.2266 37.7844C33.2251 38.1045 33.3514 38.4126 33.5783 38.6381C33.8053 38.865 34.1134 38.9928 34.4336 38.9913H36.8294C37.1495 38.9928 37.4576 38.8651 37.6831 38.6381C37.9101 38.4126 38.0378 38.1045 38.0363 37.7844C38.0348 37.4642 37.9071 37.1591 37.6801 36.9352C37.4546 36.7097 37.148 36.585 36.8294 36.5865L34.4351 36.5865ZM41.6418 36.5865H41.6403C40.9789 36.588 40.4439 37.123 40.4409 37.7844C40.4394 38.103 40.5656 38.4096 40.7896 38.6366C41.015 38.862 41.3216 38.9898 41.6403 38.9913H44.0451C44.3652 38.9928 44.6733 38.865 44.9003 38.6381C45.1273 38.4126 45.2535 38.1045 45.252 37.7843C45.252 37.4642 45.1228 37.1591 44.8973 36.9351C44.6703 36.7097 44.3637 36.5849 44.0451 36.5864L41.6418 36.5865ZM27.2175 42.5954H27.216C26.8959 42.5939 26.5878 42.7217 26.3623 42.9471C26.1354 43.1741 26.0076 43.4822 26.0091 43.8023C26.0106 44.121 26.1384 44.4276 26.3653 44.6515C26.5908 44.877 26.8974 45.0017 27.216 45.0002H29.6208C30.2822 44.9972 30.8172 44.4637 30.8187 43.8023C30.8202 43.4837 30.6955 43.1771 30.47 42.9516C30.2461 42.7247 29.941 42.5969 29.6208 42.5954L27.2175 42.5954ZM34.4351 42.5954H34.4335C34.1134 42.5939 33.8053 42.7217 33.5783 42.9486C33.3514 43.1741 33.2251 43.4822 33.2266 43.8023C33.2296 44.4667 33.7692 45.0033 34.4335 45.0002H36.8293C37.148 45.0018 37.4546 44.877 37.68 44.6516C37.907 44.4276 38.0347 44.121 38.0362 43.8024C38.0377 43.4822 37.91 43.1741 37.683 42.9471C37.4576 42.7217 37.1495 42.5939 36.8293 42.5954L34.4351 42.5954ZM41.6418 42.5954H41.6403C41.3216 42.5969 41.015 42.7247 40.7896 42.9501C40.5657 43.1771 40.4394 43.4837 40.4409 43.8023C40.4439 44.4637 40.979 44.9987 41.6403 45.0002H44.0451C44.3638 45.0017 44.6704 44.877 44.8973 44.6515C45.1228 44.4276 45.252 44.121 45.252 43.8023C45.2535 43.4822 45.1273 43.1741 44.9003 42.9471C44.6734 42.7216 44.3653 42.5939 44.0451 42.5954L41.6418 42.5954Z" fill="white"/>
</svg>
