<svg width="70" height="71" viewBox="0 0 70 71" fill="none" xmlns="http://www.w3.org/2000/svg">
<circle cx="35" cy="35.748" r="35" fill="#07A169" fill-opacity="0.8"/>
<path d="M50.4375 20.2168H19.5625C18.618 20.2178 17.7124 20.5935 17.0446 21.2614C16.3767 21.9292 16.001 22.8348 16 23.7793V48.7168C16.001 49.6613 16.3767 50.5669 17.0446 51.2347C17.7124 51.9026 18.618 52.2783 19.5625 52.2793H50.4375C51.382 52.2783 52.2876 51.9026 52.9554 51.2347C53.6233 50.5669 53.999 49.6613 54 48.7168V23.7793C53.999 22.8348 53.6233 21.9292 52.9554 21.2614C52.2876 20.5935 51.382 20.2178 50.4375 20.2168ZM51.625 48.7168C51.6247 49.0316 51.4995 49.3335 51.2768 49.5561C51.0542 49.7788 50.7523 49.904 50.4375 49.9043H19.5625C19.2477 49.904 18.9458 49.7788 18.7232 49.5561C18.5005 49.3335 18.3753 49.0316 18.375 48.7168V23.7793C18.3753 23.4644 18.5005 23.1626 18.7232 22.94C18.9458 22.7173 19.2477 22.5921 19.5625 22.5918H50.4375C50.7523 22.5921 51.0542 22.7173 51.2768 22.94C51.4995 23.1626 51.6247 23.4644 51.625 23.7793V48.7168Z" fill="white"/>
<path d="M47.2229 27.6897L37.0265 37.8855C36.8008 38.1021 36.5001 38.223 36.1872 38.223C35.8744 38.223 35.5737 38.1021 35.3479 37.8855L33.9569 36.4938C33.2781 35.8462 32.3759 35.4849 31.4378 35.4849C30.4996 35.4849 29.5975 35.8462 28.9187 36.4938L21.0979 44.3147C20.986 44.4246 20.897 44.5556 20.836 44.7001C20.775 44.8445 20.7432 44.9997 20.7425 45.1565C20.7418 45.3133 20.7722 45.4688 20.8319 45.6138C20.8916 45.7588 20.9794 45.8906 21.0903 46.0015C21.2012 46.1124 21.333 46.2002 21.478 46.2599C21.623 46.3196 21.7784 46.35 21.9353 46.3492C22.0921 46.3485 22.2472 46.3168 22.3917 46.2558C22.5362 46.1948 22.6672 46.1057 22.7771 45.9938L30.5984 38.173C30.8242 37.9565 31.1249 37.8356 31.4378 37.8356C31.7506 37.8356 32.0513 37.9565 32.2771 38.173L33.6681 39.5647C34.3469 40.2123 35.249 40.5736 36.1872 40.5736C37.1254 40.5736 38.0275 40.2123 38.7063 39.5647L48.9021 29.3688C49.1214 29.1455 49.2437 28.8446 49.2423 28.5315C49.2408 28.2185 49.1158 27.9186 48.8945 27.6973C48.6731 27.4759 48.3733 27.3509 48.0603 27.3495C47.7472 27.3481 47.4463 27.4704 47.2229 27.6897Z" fill="white"/>
</svg>
