<svg width="70" height="71" viewBox="0 0 70 71" fill="none" xmlns="http://www.w3.org/2000/svg">
<circle cx="35" cy="35.748" r="35" fill="#07A169" fill-opacity="0.8"/>
<path d="M22.4472 27.5844C19.4604 27.5844 17.0291 25.153 17.0291 22.1662C17.0291 19.1794 19.4604 16.748 22.4472 16.748C25.434 16.748 27.8654 19.1794 27.8654 22.1662C27.8654 25.153 25.434 27.5844 22.4472 27.5844ZM22.4472 18.5541C20.4561 18.5541 18.8351 20.1751 18.8351 22.1662C18.8351 24.1574 20.4561 25.7784 22.4472 25.7784C24.4384 25.7784 26.0594 24.1574 26.0594 22.1662C26.0594 20.1751 24.4384 18.5541 22.4472 18.5541Z" fill="white"/>
<path d="M25.6467 53.7721C24.2945 53.7721 23.1115 53.1445 22.3665 52.176C21.5673 53.149 20.3572 53.7721 19.0027 53.7721C16.9189 53.7721 15.2234 52.0766 15.2234 49.9929V39.3235C15.2234 38.8246 15.6276 38.4205 16.1265 38.4205H22.8583C23.3392 38.4205 23.7343 38.0412 23.7591 37.5671C23.7253 37.5558 23.6891 37.5423 23.6553 37.5265C23.3144 37.3639 23.1202 37.0162 23.1405 36.6595C23.0502 36.6302 22.9554 36.6144 22.8561 36.6144H18.447C18.1377 36.6144 17.8511 36.4564 17.684 36.1967C17.5192 35.9371 17.4966 35.6098 17.6275 35.3298L18.894 32.6207C19.043 32.3024 19.3614 32.0992 19.7113 32.0992H25.8022C26.1115 32.0992 26.4005 32.2573 26.5653 32.5191C26.7301 32.781 26.7504 33.1083 26.6172 33.3883L25.2536 36.26C25.4523 36.6347 25.5629 37.0637 25.5629 37.5175C25.5629 39.012 24.3483 40.2266 22.8538 40.2266H17.0247V49.9926C17.0247 51.0808 17.9096 51.9658 18.9978 51.9658C20.3998 51.9658 21.5399 50.8256 21.5399 49.4237V42.793C21.5399 42.2941 21.944 41.89 22.4429 41.89C22.9418 41.89 23.3459 42.2941 23.3459 42.793V49.7462C23.3459 50.9698 24.3415 51.9654 25.5651 51.9654C26.8655 51.9654 27.8611 50.9698 27.8611 49.7462V33.9049C27.8611 33.4059 28.2652 33.0018 28.7641 33.0018H34.6273C35.4559 32.7535 36.5282 32.1688 36.5282 31.7082C36.5282 31.207 36.3205 30.7465 35.9729 30.4711C35.7742 30.3131 35.4356 30.1505 34.966 30.2656C34.896 30.2815 34.826 30.2905 34.7538 30.2905H25.1524C24.6535 30.2905 24.2494 29.8864 24.2494 29.3874V25.7753C24.2494 25.2764 24.6535 24.8723 25.1524 24.8723C25.6514 24.8723 26.0555 25.2764 26.0555 25.7753V28.4844H34.6546C35.5328 28.3038 36.393 28.5047 37.0883 29.0511C37.8672 29.6651 38.3322 30.6562 38.3322 31.706C38.3322 33.8168 35.3296 34.6815 34.9864 34.7741C34.9097 34.7944 34.8307 34.8057 34.7516 34.8057H29.6653V49.7443C29.6653 51.9635 27.8592 53.7695 25.6401 53.7695L25.6467 53.7721ZM19.8696 34.8087H22.8586C23.2108 34.8087 23.5494 34.8764 23.8588 35.0006L24.378 33.9057H20.2918L19.8696 34.8087Z" fill="white"/>
<path d="M16.1853 41.0534C15.9505 41.0534 15.7134 40.9608 15.5373 40.7802L14.2753 39.4776C12.9208 38.0801 12.6115 35.9806 13.51 34.2535L15.2393 30.9213C16.0182 29.42 17.5534 28.4854 19.2466 28.4854H19.741V27.5824C19.741 27.0835 20.1451 26.6794 20.644 26.6794C21.1429 26.6794 21.547 27.0835 21.547 27.5824V29.3884C21.547 29.8874 21.1429 30.2915 20.644 30.2915H19.2465C18.2306 30.2915 17.3095 30.8514 16.8422 31.7521L15.1129 35.0843C14.5756 36.1205 14.7607 37.3803 15.5734 38.2178L16.8354 39.5204C17.1831 39.8794 17.1741 40.4506 16.8151 40.7982C16.639 40.9675 16.4133 41.0534 16.1853 41.0534Z" fill="white"/>
<path d="M34.966 29.4853C34.8148 29.4853 34.6613 29.4469 34.5213 29.3679C34.0878 29.1218 33.9343 28.571 34.1804 28.1375L37.9325 21.5207C38.1786 21.0872 38.7294 20.9337 39.1629 21.1798C39.5963 21.4259 39.7498 21.9767 39.5038 22.4102L35.7517 29.027C35.5846 29.3205 35.2798 29.4853 34.966 29.4853Z" fill="white"/>
<path d="M57.6658 42.9357H31.4782C30.9792 42.9357 30.5751 42.5316 30.5751 42.0327V34.8084C30.5751 34.3095 30.9792 33.9054 31.4782 33.9054C31.9771 33.9054 32.3812 34.3095 32.3812 34.8084V41.1299H56.7634V18.5544H32.3812V29.3908C32.3812 29.8897 31.9771 30.2938 31.4782 30.2938C30.9792 30.2938 30.5751 29.8897 30.5751 29.3908V17.6517C30.5751 17.1527 30.9792 16.7486 31.4782 16.7486H57.6658C58.1647 16.7486 58.5689 17.1527 58.5689 17.6517V42.0338C58.5689 42.5328 58.1647 42.9369 57.6658 42.9369V42.9357Z" fill="white"/>
</svg>
