<svg width="200" height="45" viewBox="0 0 200 45" fill="none" xmlns="http://www.w3.org/2000/svg">
<path d="M86.087 31.444V16.7428H90.0398V19.3079H90.193C90.4609 18.3955 90.9108 17.7063 91.5425 17.2405C92.1742 16.7684 92.9016 16.5323 93.7247 16.5323C93.9289 16.5323 94.149 16.545 94.3851 16.5706C94.6212 16.5961 94.8285 16.6312 95.0072 16.6759V20.2937C94.8158 20.2363 94.551 20.1852 94.2128 20.1406C93.8746 20.0959 93.5652 20.0736 93.2844 20.0736C92.6846 20.0736 92.1486 20.2044 91.6765 20.466C91.2107 20.7212 90.8406 21.0785 90.5662 21.5379C90.2982 21.9974 90.1642 22.527 90.1642 23.1267V31.444H86.087Z" fill="black"/>
<path d="M103.131 31.7311C101.618 31.7311 100.317 31.4248 99.2256 30.8123C98.1409 30.1934 97.305 29.3192 96.718 28.1898C96.131 27.0541 95.8375 25.7109 95.8375 24.1604C95.8375 22.6482 96.131 21.321 96.718 20.1789C97.305 19.0367 98.1313 18.1466 99.1969 17.5085C100.269 16.8705 101.526 16.5514 102.968 16.5514C103.938 16.5514 104.841 16.7078 105.677 17.0204C106.519 17.3267 107.253 17.7893 107.878 18.4082C108.51 19.0271 109.001 19.8056 109.352 20.7435C109.703 21.6751 109.878 22.7662 109.878 24.0168V25.1367H97.4646V22.6099H106.04C106.04 22.0229 105.913 21.5029 105.657 21.0498C105.402 20.5968 105.048 20.2427 104.595 19.9874C104.148 19.7258 103.628 19.595 103.035 19.595C102.416 19.595 101.867 19.7386 101.389 20.0257C100.917 20.3065 100.546 20.6861 100.278 21.1647C100.01 21.6368 99.8733 22.1633 99.8669 22.7439V25.1462C99.8669 25.8736 100.001 26.5021 100.269 27.0317C100.543 27.5613 100.929 27.9697 101.427 28.2568C101.925 28.544 102.515 28.6875 103.198 28.6875C103.651 28.6875 104.065 28.6237 104.442 28.4961C104.818 28.3685 105.141 28.1771 105.409 27.9218C105.677 27.6666 105.881 27.354 106.021 26.9839L109.792 27.2327C109.601 28.1388 109.208 28.93 108.615 29.6063C108.028 30.2763 107.269 30.7995 106.337 31.176C105.412 31.5461 104.343 31.7311 103.131 31.7311Z" fill="black"/>
<path d="M112.539 36.9569V16.7428H116.559V19.2122H116.741C116.919 18.8166 117.178 18.4146 117.516 18.0062C117.86 17.5915 118.307 17.2469 118.856 16.9726C119.411 16.6918 120.1 16.5514 120.923 16.5514C121.995 16.5514 122.984 16.8322 123.89 17.3937C124.796 17.9488 125.521 18.7879 126.063 19.9109C126.605 21.0275 126.876 22.4281 126.876 24.1126C126.876 25.7524 126.612 27.137 126.082 28.2664C125.559 29.3894 124.844 30.2412 123.938 30.8219C123.038 31.3961 122.03 31.6833 120.914 31.6833C120.122 31.6833 119.449 31.5525 118.894 31.2908C118.345 31.0292 117.896 30.7006 117.545 30.305C117.194 29.903 116.926 29.4979 116.741 29.0895H116.616V36.9569H112.539ZM116.53 24.0934C116.53 24.9676 116.651 25.7301 116.894 26.3809C117.136 27.0317 117.487 27.539 117.947 27.9027C118.406 28.26 118.964 28.4387 119.622 28.4387C120.285 28.4387 120.847 28.2568 121.306 27.8931C121.765 27.523 122.113 27.0126 122.349 26.3618C122.592 25.7045 122.713 24.9484 122.713 24.0934C122.713 23.2448 122.595 22.4982 122.359 21.8538C122.123 21.2093 121.775 20.7053 121.316 20.3416C120.856 19.9779 120.292 19.796 119.622 19.796C118.958 19.796 118.396 19.9715 117.937 20.3224C117.484 20.6734 117.136 21.1711 116.894 21.8155C116.651 22.46 116.53 23.2193 116.53 24.0934Z" fill="black"/>
<path d="M136.294 31.7311C134.782 31.7311 133.48 31.4248 132.389 30.8123C131.305 30.1934 130.469 29.3192 129.882 28.1898C129.295 27.0541 129.001 25.7109 129.001 24.1604C129.001 22.6482 129.295 21.321 129.882 20.1789C130.469 19.0367 131.295 18.1466 132.361 17.5085C133.433 16.8705 134.69 16.5514 136.132 16.5514C137.101 16.5514 138.004 16.7078 138.84 17.0204C139.682 17.3267 140.416 17.7893 141.042 18.4082C141.673 19.0271 142.165 19.8056 142.516 20.7435C142.866 21.6751 143.042 22.7662 143.042 24.0168V25.1367H130.628V22.6099H139.204C139.204 22.0229 139.076 21.5029 138.821 21.0498C138.566 20.5968 138.212 20.2427 137.759 19.9874C137.312 19.7258 136.792 19.595 136.199 19.595C135.58 19.595 135.031 19.7386 134.552 20.0257C134.08 20.3065 133.71 20.6861 133.442 21.1647C133.174 21.6368 133.037 22.1633 133.031 22.7439V25.1462C133.031 25.8736 133.165 26.5021 133.433 27.0317C133.707 27.5613 134.093 27.9697 134.591 28.2568C135.088 28.544 135.679 28.6875 136.361 28.6875C136.814 28.6875 137.229 28.6237 137.606 28.4961C137.982 28.3685 138.304 28.1771 138.572 27.9218C138.84 27.6666 139.044 27.354 139.185 26.9839L142.956 27.2327C142.764 28.1388 142.372 28.93 141.779 29.6063C141.192 30.2763 140.432 30.7995 139.501 31.176C138.575 31.5461 137.507 31.7311 136.294 31.7311Z" fill="black"/>
<path d="M153.522 16.7428V19.8056H144.669V16.7428H153.522ZM146.679 13.2207H150.756V26.9264C150.756 27.3029 150.814 27.5964 150.928 27.807C151.043 28.0112 151.203 28.1547 151.407 28.2377C151.618 28.3206 151.86 28.3621 152.134 28.3621C152.326 28.3621 152.517 28.3462 152.709 28.3143C152.9 28.276 153.047 28.2473 153.149 28.2281L153.79 31.2621C153.586 31.3259 153.299 31.3993 152.929 31.4823C152.559 31.5716 152.109 31.6258 151.579 31.645C150.597 31.6833 149.735 31.5525 148.995 31.2526C148.261 30.9527 147.69 30.4869 147.282 29.8552C146.874 29.2235 146.673 28.4259 146.679 27.4624V13.2207Z" fill="black"/>
<path d="M156.178 31.444V16.7428H160.255V31.444H156.178ZM158.226 14.8478C157.62 14.8478 157.1 14.6468 156.666 14.2448C156.239 13.8364 156.025 13.3483 156.025 12.7804C156.025 12.2189 156.239 11.7372 156.666 11.3352C157.1 10.9268 157.62 10.7227 158.226 10.7227C158.833 10.7227 159.349 10.9268 159.777 11.3352C160.211 11.7372 160.428 12.2189 160.428 12.7804C160.428 13.3483 160.211 13.8364 159.777 14.2448C159.349 14.6468 158.833 14.8478 158.226 14.8478Z" fill="black"/>
<path d="M171.341 16.7428V19.8056H162.488V16.7428H171.341ZM164.498 13.2207H168.575V26.9264C168.575 27.3029 168.633 27.5964 168.747 27.807C168.862 28.0112 169.022 28.1547 169.226 28.2377C169.437 28.3206 169.679 28.3621 169.953 28.3621C170.145 28.3621 170.336 28.3462 170.528 28.3143C170.719 28.276 170.866 28.2473 170.968 28.2281L171.609 31.2621C171.405 31.3259 171.118 31.3993 170.748 31.4823C170.378 31.5716 169.928 31.6258 169.398 31.645C168.416 31.6833 167.554 31.5525 166.814 31.2526C166.08 30.9527 165.509 30.4869 165.101 29.8552C164.692 29.2235 164.491 28.4259 164.498 27.4624V13.2207Z" fill="black"/>
<path d="M180.481 31.7311C178.995 31.7311 177.709 31.4153 176.624 30.7836C175.546 30.1455 174.713 29.2586 174.126 28.1228C173.539 26.9807 173.246 25.6567 173.246 24.1508C173.246 22.6322 173.539 21.305 174.126 20.1693C174.713 19.0271 175.546 18.1402 176.624 17.5085C177.709 16.8705 178.995 16.5514 180.481 16.5514C181.968 16.5514 183.251 16.8705 184.329 17.5085C185.414 18.1402 186.25 19.0271 186.837 20.1693C187.424 21.305 187.717 22.6322 187.717 24.1508C187.717 25.6567 187.424 26.9807 186.837 28.1228C186.25 29.2586 185.414 30.1455 184.329 30.7836C183.251 31.4153 181.968 31.7311 180.481 31.7311ZM180.501 28.5727C181.177 28.5727 181.742 28.3812 182.195 27.9984C182.648 27.6092 182.989 27.0796 183.219 26.4096C183.455 25.7396 183.573 24.9771 183.573 24.1221C183.573 23.2671 183.455 22.5046 183.219 21.8346C182.989 21.1647 182.648 20.6351 182.195 20.2459C181.742 19.8566 181.177 19.662 180.501 19.662C179.818 19.662 179.244 19.8566 178.778 20.2459C178.318 20.6351 177.971 21.1647 177.735 21.8346C177.505 22.5046 177.39 23.2671 177.39 24.1221C177.39 24.9771 177.505 25.7396 177.735 26.4096C177.971 27.0796 178.318 27.6092 178.778 27.9984C179.244 28.3812 179.818 28.5727 180.501 28.5727Z" fill="black"/>
<path d="M190.368 31.444V16.7428H194.321V19.3079H194.474C194.742 18.3955 195.192 17.7063 195.824 17.2405C196.456 16.7684 197.183 16.5323 198.006 16.5323C198.21 16.5323 198.43 16.545 198.666 16.5706C198.903 16.5961 199.11 16.6312 199.289 16.6759V20.2937C199.097 20.2363 198.832 20.1852 198.494 20.1406C198.156 20.0959 197.847 20.0736 197.566 20.0736C196.966 20.0736 196.43 20.2044 195.958 20.466C195.492 20.7212 195.122 21.0785 194.848 21.5379C194.58 21.9974 194.446 22.527 194.446 23.1267V31.444H190.368Z" fill="black"/>
<circle cx="22.5" cy="22.5" r="22.5" fill="#07A169" fill-opacity="0.75"/>
<path fill-rule="evenodd" clip-rule="evenodd" d="M23.6956 12.3537C23.6956 12.0141 23.4279 11.7388 23.0978 11.7388H21.9021C21.572 11.7388 21.3043 12.0141 21.3043 12.3537V21.5773C21.3043 21.9168 21.572 22.1922 21.9021 22.1922H23.0978C23.4279 22.1922 23.6956 21.9168 23.6956 21.5773V12.3537ZM28.8255 16.5548C28.6091 16.2982 28.6073 15.9103 28.8408 15.6701L29.6863 14.8005C29.9198 14.5604 30.2997 14.5593 30.5199 14.8123C32.2243 16.7706 33.2608 19.3569 33.2608 22.1922C33.2608 28.3051 28.4431 33.2605 22.4999 33.2605C16.5569 33.2605 11.7391 28.3051 11.7391 22.1922C11.7391 19.3569 12.7755 16.7706 14.48 14.8123C14.7002 14.5593 15.0801 14.5604 15.3136 14.8005L16.159 15.6701C16.3925 15.9103 16.3907 16.2982 16.1744 16.5548C14.901 18.0651 14.1304 20.0361 14.1304 22.1922C14.1304 26.9466 17.8776 30.8009 22.4999 30.8009C27.1223 30.8009 30.8695 26.9466 30.8695 22.1922C30.8695 20.0361 30.0989 18.0651 28.8255 16.5548Z" fill="white"/>
<path d="M56.5645 32.1603C54.9294 32.1603 53.7345 31.72 52.9798 30.8396C52.2252 29.9382 51.8478 28.7853 51.8478 27.3808C51.8478 24.8862 52.2252 22.7689 52.9798 21.029C53.7554 19.2891 54.835 17.958 56.2186 17.0356C57.6021 16.1133 59.2162 15.6521 61.061 15.6521C62.2139 15.6521 63.1363 15.8722 63.828 16.3124C64.5408 16.7526 65.0544 17.3396 65.3688 18.0733C65.7042 18.786 65.8719 19.5931 65.8719 20.4945C65.8719 22.9471 65.4841 25.0434 64.7085 26.7833C63.9329 28.5232 62.8428 29.8544 61.4383 30.7767C60.0548 31.6991 58.4301 32.1603 56.5645 32.1603ZM57.5078 30.0849C58.3253 30.0849 58.9961 29.7915 59.5202 29.2045C60.0652 28.6176 60.4845 27.8524 60.778 26.9091C61.0924 25.9448 61.3125 24.9071 61.4383 23.7961C61.5641 22.6641 61.627 21.5636 61.627 20.4945C61.627 19.6769 61.5326 19.0271 61.344 18.545C61.1763 18.0419 60.7989 17.7903 60.212 17.7903C59.5202 17.7903 58.9332 18.0104 58.4511 18.4506C57.969 18.8699 57.5707 19.4359 57.2562 20.1486C56.9418 20.8404 56.7007 21.616 56.533 22.4755C56.3653 23.314 56.25 24.163 56.1871 25.0224C56.1242 25.8819 56.0928 26.668 56.0928 27.3808C56.0928 28.1983 56.1766 28.8586 56.3443 29.3617C56.533 29.8439 56.9208 30.0849 57.5078 30.0849Z" fill="#07A169"/>
<path d="M66.6865 32.1603L69.3907 18.4821L67.1582 18.1991L66.8437 16.9099C67.4726 16.7002 68.1539 16.5116 68.8876 16.3439C69.6423 16.1762 70.355 16.0399 71.0258 15.9351C71.7176 15.8093 72.294 15.7464 72.7552 15.7464C73.0487 15.7464 73.2688 15.8303 73.4155 15.998C73.5623 16.1447 73.6357 16.3334 73.6357 16.564C73.6357 16.6688 73.6147 16.8679 73.5728 17.1614C73.5308 17.4339 73.4889 17.7169 73.447 18.0104C73.4051 18.3039 73.3631 18.5345 73.3212 18.7022C74.1388 17.9894 74.9353 17.413 75.711 16.9728C76.5075 16.5116 77.2517 16.1762 77.9435 15.9665C78.6353 15.7569 79.2117 15.6521 79.6729 15.6521C80.4695 15.6521 80.9936 15.8303 81.2451 16.1866C81.4967 16.543 81.6225 17.0671 81.6225 17.7589C81.6225 17.9894 81.57 18.4192 81.4652 19.0481C81.3604 19.6769 81.2242 20.4421 81.0565 21.3435C80.8888 22.2239 80.7001 23.1672 80.4905 24.1735C80.2808 25.1587 80.0712 26.1439 79.8616 27.1292C79.652 28.0935 79.4633 28.9739 79.2956 29.7705H81.7482V31.2798C81.1613 31.5523 80.48 31.762 79.7044 31.9087C78.9497 32.0764 78.237 32.1603 77.5662 32.1603C76.8534 32.1603 76.2874 32.0345 75.8682 31.7829C75.4489 31.5104 75.2393 30.9444 75.2393 30.0849C75.2393 29.8963 75.2917 29.5399 75.3965 29.0158C75.5013 28.4708 75.6376 27.8314 75.8053 27.0978C75.973 26.3641 76.1407 25.5884 76.3084 24.7709C76.4971 23.9533 76.6753 23.1777 76.843 22.444C77.0107 21.6894 77.1469 21.0395 77.2517 20.4945C77.3565 19.9285 77.4089 19.5407 77.4089 19.3311C77.4089 19.1634 77.3775 18.9957 77.3146 18.828C77.2727 18.6393 77.105 18.545 76.8115 18.545C76.539 18.545 76.1617 18.6603 75.6795 18.8908C75.2183 19.1005 74.7467 19.3835 74.2645 19.7398C73.7824 20.0962 73.3527 20.484 72.9753 20.9033L70.9944 31.72L66.6865 32.1603Z" fill="#07A169"/>
</svg>
