<svg width="30" height="30" viewBox="0 0 30 30" fill="none" xmlns="http://www.w3.org/2000/svg">
<path d="M29.9825 22.662C29.7151 24.6945 28.7169 26.5603 27.1743 27.9107C25.6318 29.261 23.6505 30.0038 21.6004 30.0001C9.69018 30.0001 1.35732e-05 20.3099 1.35732e-05 8.39972C-0.00366146 6.34962 0.739057 4.36828 2.08945 2.82577C3.43984 1.28325 5.30556 0.285039 7.33814 0.0175747C7.85213 -0.045185 8.37263 0.0599683 8.82195 0.317338C9.27126 0.574707 9.62529 0.970488 9.83118 1.4456L12.9992 8.51822V8.53622C13.1569 8.89991 13.222 9.29698 13.1887 9.69196C13.1555 10.0869 13.0249 10.4675 12.8087 10.7998C12.7817 10.8403 12.7532 10.8778 12.7232 10.9153L9.60018 14.6173C10.7237 16.9004 13.1117 19.2674 15.4248 20.3939L19.0758 17.2874C19.1117 17.2572 19.1493 17.2292 19.1883 17.2034C19.5203 16.982 19.9022 16.8468 20.2995 16.8102C20.6968 16.7735 21.097 16.8365 21.4639 16.9934L21.4834 17.0024L28.55 20.1689C29.026 20.3741 29.4227 20.7278 29.6809 21.1772C29.9391 21.6266 30.0449 22.1475 29.9825 22.662Z" fill="#45B88F"/>
</svg>
