<svg width="30" height="40" viewBox="0 0 30 40" fill="none" xmlns="http://www.w3.org/2000/svg">
<path d="M15 0.909058C11.0232 0.913749 7.21062 2.49561 4.39859 5.30763C1.58656 8.11966 0.0047075 11.9322 1.59585e-05 15.909C-0.00474707 19.1589 1.05681 22.3206 3.02183 24.909C3.02183 24.909 3.43092 25.4477 3.49774 25.5254L15 39.0908L26.5077 25.5186C26.5677 25.4463 26.9782 24.909 26.9782 24.909L26.9795 24.9049C28.9436 22.3176 30.0046 19.1574 30 15.909C29.9953 11.9322 28.4134 8.11966 25.6014 5.30763C22.7894 2.49561 18.9768 0.913749 15 0.909058ZM15 21.3636C13.9212 21.3636 12.8666 21.0437 11.9696 20.4443C11.0726 19.845 10.3735 18.9931 9.96066 17.9964C9.54782 16.9997 9.4398 15.903 9.65027 14.8449C9.86073 13.7868 10.3802 12.8149 11.1431 12.0521C11.9059 11.2893 12.8778 10.7698 13.9359 10.5593C14.9939 10.3488 16.0907 10.4569 17.0874 10.8697C18.084 11.2825 18.9359 11.9817 19.5353 12.8787C20.1346 13.7757 20.4545 14.8302 20.4545 15.909C20.4527 17.3551 19.8775 18.7415 18.8549 19.764C17.8324 20.7865 16.4461 21.3618 15 21.3636Z" fill="#45B88F"/>
</svg>
