<svg width="58" height="58" viewBox="0 0 58 58" fill="none" xmlns="http://www.w3.org/2000/svg">
<g filter="url(#filter0_d_1_446)">
<rect x="4" width="50" height="50" rx="8" fill="#F5FBF9"/>
</g>
<path d="M18.4516 13C14.8914 13 12 15.8914 12 19.4516V31.5484C12 35.1086 14.8914 38 18.4516 38H39.4194C42.9796 38 45.871 35.1086 45.871 31.5484V19.4516C45.871 15.8914 42.9796 13 39.4194 13H18.4516ZM18.4516 14.6129H39.4194C42.1139 14.6129 44.2581 16.7571 44.2581 19.4516V31.5484C44.2581 34.2429 42.1139 36.3871 39.4194 36.3871H18.4516C15.7571 36.3871 13.6129 34.2429 13.6129 31.5484V19.4516C13.6129 16.7571 15.7571 14.6129 18.4516 14.6129ZM25.6467 19.4516C25.4439 19.4675 25.2546 19.5594 25.1168 19.709C24.9789 19.8585 24.9026 20.0547 24.9032 20.2581V30.7419C24.9004 30.9338 24.9661 31.1205 25.0885 31.2683C25.2109 31.4161 25.382 31.5154 25.5711 31.5484C25.762 31.5825 25.9588 31.5468 26.1255 31.4476L34.9965 26.2056C35.1195 26.135 35.2217 26.0331 35.2928 25.9103C35.3638 25.7875 35.4013 25.6482 35.4013 25.5063C35.4013 25.3644 35.3638 25.2251 35.2928 25.1023C35.2217 24.9795 35.1195 24.8776 34.9965 24.8069L26.1255 19.565C25.9816 19.4782 25.8142 19.4386 25.6467 19.4516ZM26.5161 21.6819L32.9803 25.5L26.5161 29.3306V21.6819Z" fill="#07A169"/>
<defs>
<filter id="filter0_d_1_446" x="0" y="0" width="58" height="58" filterUnits="userSpaceOnUse" color-interpolation-filters="sRGB">
<feFlood flood-opacity="0" result="BackgroundImageFix"/>
<feColorMatrix in="SourceAlpha" type="matrix" values="0 0 0 0 0 0 0 0 0 0 0 0 0 0 0 0 0 0 127 0" result="hardAlpha"/>
<feOffset dy="4"/>
<feGaussianBlur stdDeviation="2"/>
<feComposite in2="hardAlpha" operator="out"/>
<feColorMatrix type="matrix" values="0 0 0 0 0 0 0 0 0 0 0 0 0 0 0 0 0 0 0.1 0"/>
<feBlend mode="normal" in2="BackgroundImageFix" result="effect1_dropShadow_1_446"/>
<feBlend mode="normal" in="SourceGraphic" in2="effect1_dropShadow_1_446" result="shape"/>
</filter>
</defs>
</svg>
