<svg width="105" height="26" viewBox="0 0 105 26" fill="none" xmlns="http://www.w3.org/2000/svg">
<path d="M7.222 11.945C9.364 12.285 10.452 13.611 10.452 15.362C10.452 17.368 8.905 19.204 5.522 19.204C3.856 19.204 2.139 18.745 0.983 17.929L2.054 15.821C2.955 16.501 4.213 16.892 5.454 16.892C6.831 16.892 7.681 16.331 7.681 15.362C7.681 14.461 7.018 13.9 5.454 13.9L4.196 13.9L4.196 12.081L6.644 9.31L1.578 9.31L1.578 7.1L9.908 7.1L9.908 8.885L7.222 11.945ZM19.8665 12.744C21.0225 13.322 21.6855 14.274 21.6855 15.549C21.6855 17.793 19.6795 19.204 16.6535 19.204C13.6445 19.204 11.6555 17.793 11.6555 15.549C11.6555 14.274 12.3185 13.322 13.4575 12.744C12.5735 12.2 12.0805 11.367 12.0805 10.296C12.0805 8.205 13.9505 6.896 16.6535 6.896C19.3905 6.896 21.2605 8.205 21.2605 10.296C21.2605 11.367 20.7505 12.2 19.8665 12.744ZM16.6535 8.919C15.5485 8.919 14.8175 9.48 14.8175 10.415C14.8175 11.316 15.5315 11.877 16.6535 11.877C17.7925 11.877 18.5235 11.316 18.5235 10.415C18.5235 9.48 17.7755 8.919 16.6535 8.919ZM16.6535 17.181C18.0305 17.181 18.8975 16.518 18.8975 15.464C18.8975 14.41 18.0305 13.764 16.6535 13.764C15.2935 13.764 14.4435 14.41 14.4435 15.464C14.4435 16.518 15.2935 17.181 16.6535 17.181ZM28.0462 19.204C25.1222 19.204 22.9462 16.977 22.9462 13.05C22.9462 9.123 25.1222 6.896 28.0462 6.896C30.9872 6.896 33.1462 9.123 33.1462 13.05C33.1462 16.977 30.9872 19.204 28.0462 19.204ZM28.0462 16.875C29.4232 16.875 30.3752 15.753 30.3752 13.05C30.3752 10.347 29.4232 9.225 28.0462 9.225C26.6862 9.225 25.7342 10.347 25.7342 13.05C25.7342 15.753 26.6862 16.875 28.0462 16.875ZM47.2377 6.947C50.5187 7.304 52.7117 9.752 52.7117 13.424L52.7117 19L50.1447 19L50.1447 13.458C50.1447 11.112 49.1757 9.684 47.2377 9.378L47.2377 16.96L45.5377 16.96L45.5377 9.378C43.5997 9.701 42.5967 11.129 42.5967 13.458L42.5967 19L40.0467 19L40.0467 13.424C40.0467 9.752 42.2397 7.304 45.5377 6.947L45.5377 5.06L47.2377 5.06L47.2377 6.947Z" fill="#FD661F"/>
<g opacity="0.5">
<path d="M69.9677 7.42676L69.9677 9.03176L65.5427 9.03176L65.5427 11.6118C65.9777 11.3718 66.4727 11.2518 67.0427 11.2518C68.0177 11.2518 68.8727 11.5518 69.5777 12.1368C70.2827 12.7218 70.6427 13.5318 70.6427 14.5368C70.6427 15.5418 70.2677 16.3818 69.5327 17.0568C68.7977 17.7168 67.8827 18.0468 66.8027 18.0468C65.3927 18.0468 64.2677 17.5818 63.4277 16.6368L64.3727 15.3468C64.5227 15.4968 64.7027 15.7218 65.5277 16.0818C66.3827 16.4418 67.4477 16.5018 68.2727 15.9018C68.6777 15.6018 68.8877 15.1668 68.8877 14.5968C68.8877 14.0268 68.6627 13.5768 68.2277 13.2618C67.7927 12.9468 67.2377 12.7818 66.5777 12.7818C65.9177 12.7818 65.2877 12.9468 64.6877 13.2768L63.9377 12.4668L63.9377 7.42676L69.9677 7.42676ZM74.5743 9.78176C74.1693 10.5168 73.9593 11.4618 73.9593 12.6168C73.9593 13.7718 74.1693 14.7168 74.5743 15.4518C74.9943 16.1718 75.6393 16.5318 76.5243 16.5318C77.3943 16.5318 78.0393 16.1718 78.4443 15.4668C78.8493 14.7318 79.0593 13.7868 79.0593 12.6168C79.0593 11.4318 78.8493 10.4868 78.4443 9.78176C78.0393 9.06176 77.3943 8.70176 76.5243 8.70176C75.6393 8.70176 74.9943 9.06176 74.5743 9.78176ZM73.3143 16.5768C72.6093 15.5718 72.2493 14.2518 72.2493 12.6168C72.2493 10.9668 72.6093 9.64676 73.3143 8.67176C74.0193 7.68176 75.0843 7.18676 76.5243 7.18676C77.9493 7.18676 79.0293 7.68176 79.7343 8.67176C80.4393 9.64676 80.7993 10.9668 80.7993 12.6168C80.7993 14.2518 80.4393 15.5718 79.7343 16.5768C79.0293 17.5518 77.9493 18.0468 76.5243 18.0468C75.0993 18.0468 74.0193 17.5518 73.3143 16.5768ZM84.9014 9.78176C84.4964 10.5168 84.2864 11.4618 84.2864 12.6168C84.2864 13.7718 84.4964 14.7168 84.9014 15.4518C85.3214 16.1718 85.9664 16.5318 86.8514 16.5318C87.7214 16.5318 88.3664 16.1718 88.7714 15.4668C89.1764 14.7318 89.3864 13.7868 89.3864 12.6168C89.3864 11.4318 89.1764 10.4868 88.7714 9.78176C88.3664 9.06176 87.7214 8.70176 86.8514 8.70176C85.9664 8.70176 85.3214 9.06176 84.9014 9.78176ZM83.6414 16.5768C82.9364 15.5718 82.5764 14.2518 82.5764 12.6168C82.5764 10.9668 82.9364 9.64676 83.6414 8.67176C84.3464 7.68176 85.4114 7.18676 86.8514 7.18676C88.2764 7.18676 89.3564 7.68176 90.0614 8.67176C90.7664 9.64676 91.1264 10.9668 91.1264 12.6168C91.1264 14.2518 90.7664 15.5718 90.0614 16.5768C89.3564 17.5518 88.2764 18.0468 86.8514 18.0468C85.4264 18.0468 84.3464 17.5518 83.6414 16.5768ZM92.9036 15.7218C92.9036 14.8118 92.9836 14.0318 93.1436 13.3818C93.3136 12.7318 93.5786 12.1968 93.9386 11.7768C94.2986 11.3568 94.7586 11.0368 95.3186 10.8168C95.8886 10.5968 96.5786 10.4618 97.3886 10.4118L97.3886 7.21676L98.7086 7.21676L98.7086 10.4118C99.4586 10.4618 100.114 10.5918 100.674 10.8018C101.234 11.0118 101.699 11.3268 102.069 11.7468C102.449 12.1568 102.729 12.6868 102.909 13.3368C103.099 13.9768 103.194 14.7568 103.194 15.6768L103.194 17.9268L101.859 17.9268L101.859 15.7068C101.859 14.9668 101.789 14.3418 101.649 13.8318C101.519 13.3118 101.324 12.8918 101.064 12.5718C100.804 12.2518 100.474 12.0118 100.074 11.8518C99.6836 11.6918 99.2286 11.5918 98.7086 11.5518L98.7086 15.4668L97.3886 15.4668L97.3886 11.5518C96.8186 11.5918 96.3336 11.6968 95.9336 11.8668C95.5336 12.0268 95.2086 12.2668 94.9586 12.5868C94.7086 12.9068 94.5236 13.3218 94.4036 13.8318C94.2936 14.3418 94.2386 14.9618 94.2386 15.6918L94.2386 17.9268L92.9036 17.9268L92.9036 15.7218Z" fill="#101011"/>
<path d="M62.6777 13.1418L92.0114 13.1418L92.0114 13.8918L62.6777 13.8918L62.6777 13.1418ZM92.0186 13.0968L104.169 13.0968L104.169 13.8468L92.0186 13.8468L92.0186 13.0968Z" fill="#101011"/>
</g>
</svg>
