<svg width="211" height="40" viewBox="0 0 211 40" fill="none" xmlns="http://www.w3.org/2000/svg">
<circle cx="20" cy="20" r="20" fill="#ECF0F6"/>
<path d="M28.4332 15.1528C27.813 15.4277 27.1467 15.6134 26.4462 15.6973C27.169 15.2649 27.7097 14.5842 27.9675 13.7824C27.2884 14.1857 26.5453 14.4696 25.7703 14.6217C25.2491 14.0653 24.5588 13.6965 23.8066 13.5725C23.0543 13.4486 22.2822 13.5765 21.6101 13.9363C20.938 14.2962 20.4035 14.8679 20.0895 15.5626C19.7756 16.2574 19.6999 17.0364 19.874 17.7786C18.4981 17.7095 17.1522 17.3519 15.9234 16.729C14.6947 16.106 13.6107 15.2317 12.7417 14.1627C12.4446 14.6752 12.2738 15.2695 12.2738 15.9023C12.2734 16.472 12.4137 17.033 12.6822 17.5355C12.9507 18.038 13.3391 18.4665 13.8128 18.7829C13.2634 18.7654 12.726 18.6169 12.2456 18.3498V18.3944C12.2455 19.1934 12.5219 19.9679 13.0278 20.5864C13.5338 21.2048 14.2381 21.6292 15.0214 21.7875C14.5116 21.9254 13.9772 21.9457 13.4585 21.8469C13.6795 22.5344 14.11 23.1356 14.6896 23.5664C15.2693 23.9971 15.9691 24.2358 16.6912 24.2491C15.4654 25.2113 13.9517 25.7332 12.3934 25.7309C12.1173 25.731 11.8415 25.7149 11.5674 25.6827C13.1491 26.6997 14.9904 27.2394 16.8709 27.2373C23.2366 27.2373 26.7166 21.965 26.7166 17.3924C26.7166 17.2438 26.7129 17.0938 26.7062 16.9452C27.3831 16.4557 27.9674 15.8495 28.4317 15.1551L28.4332 15.1528Z" fill="#101011"/>
<path d="M28.4332 15.1528C27.813 15.4277 27.1467 15.6134 26.4462 15.6973C27.169 15.2649 27.7097 14.5842 27.9675 13.7824C27.2884 14.1857 26.5453 14.4696 25.7703 14.6217C25.2491 14.0653 24.5588 13.6965 23.8066 13.5725C23.0543 13.4486 22.2822 13.5765 21.6101 13.9363C20.938 14.2962 20.4035 14.8679 20.0895 15.5626C19.7756 16.2574 19.6999 17.0364 19.874 17.7786C18.4981 17.7095 17.1522 17.3519 15.9234 16.729C14.6947 16.106 13.6107 15.2317 12.7417 14.1627C12.4446 14.6752 12.2738 15.2695 12.2738 15.9023C12.2734 16.472 12.4137 17.033 12.6822 17.5355C12.9507 18.038 13.3391 18.4665 13.8128 18.7829C13.2634 18.7654 12.726 18.6169 12.2456 18.3498V18.3944C12.2455 19.1934 12.5219 19.9679 13.0278 20.5864C13.5338 21.2048 14.2381 21.6292 15.0214 21.7875C14.5116 21.9254 13.9772 21.9457 13.4585 21.8469C13.6795 22.5344 14.11 23.1356 14.6896 23.5664C15.2693 23.9971 15.9691 24.2358 16.6912 24.2491C15.4654 25.2113 13.9517 25.7332 12.3934 25.7309C12.1173 25.731 11.8415 25.7149 11.5674 25.6827C13.1491 26.6997 14.9904 27.2394 16.8709 27.2373C23.2366 27.2373 26.7166 21.965 26.7166 17.3924C26.7166 17.2438 26.7129 17.0938 26.7062 16.9452C27.3831 16.4557 27.9674 15.8495 28.4317 15.1551L28.4332 15.1528Z" fill="#101011" fill-opacity="0.2"/>
<circle cx="77" cy="20" r="20" fill="#ECF0F6"/>
<path fill-rule="evenodd" clip-rule="evenodd" d="M75.1148 16.7473H78.1718V18.27C78.6122 17.3943 79.7415 16.6074 81.4379 16.6074C84.6899 16.6074 85.462 18.3507 85.462 21.5493V27.4731H82.1696V22.2777C82.1696 20.4562 81.7293 19.429 80.6082 19.429C79.0534 19.429 78.4072 20.536 78.4072 22.2769V27.4731H75.1148V16.7473ZM69.4692 27.3332H72.7616V16.6074H69.4692V27.3332ZM73.2332 13.11C73.2333 13.386 73.1786 13.6592 73.0722 13.9138C72.9658 14.1685 72.8098 14.3994 72.6134 14.5932C72.2154 14.9888 71.6766 15.2103 71.1154 15.2089C70.5552 15.2085 70.0176 14.9877 69.619 14.5941C69.4232 14.3996 69.2678 14.1684 69.1616 13.9137C69.0554 13.6591 69.0005 13.3859 69 13.11C69 12.5528 69.2222 12.0194 69.6198 11.626C70.0181 11.2318 70.5559 11.0109 71.1162 11.0111C71.6775 11.0111 72.2159 11.2325 72.6134 11.626C73.0101 12.0194 73.2332 12.5528 73.2332 13.11Z" fill="#101011"/>
<path fill-rule="evenodd" clip-rule="evenodd" d="M75.1148 16.7473H78.1718V18.27C78.6122 17.3943 79.7415 16.6074 81.4379 16.6074C84.6899 16.6074 85.462 18.3507 85.462 21.5493V27.4731H82.1696V22.2777C82.1696 20.4562 81.7293 19.429 80.6082 19.429C79.0534 19.429 78.4072 20.536 78.4072 22.2769V27.4731H75.1148V16.7473ZM69.4692 27.3332H72.7616V16.6074H69.4692V27.3332ZM73.2332 13.11C73.2333 13.386 73.1786 13.6592 73.0722 13.9138C72.9658 14.1685 72.8098 14.3994 72.6134 14.5932C72.2154 14.9888 71.6766 15.2103 71.1154 15.2089C70.5552 15.2085 70.0176 14.9877 69.619 14.5941C69.4232 14.3996 69.2678 14.1684 69.1616 13.9137C69.0554 13.6591 69.0005 13.3859 69 13.11C69 12.5528 69.2222 12.0194 69.6198 11.626C70.0181 11.2318 70.5559 11.0109 71.1162 11.0111C71.6775 11.0111 72.2159 11.2325 72.6134 11.626C73.0101 12.0194 73.2332 12.5528 73.2332 13.11Z" fill="#101011" fill-opacity="0.2"/>
<circle cx="134" cy="20" r="20" fill="#ECF0F6"/>
<path d="M139.567 11.8575C139.567 11.7433 139.522 11.6339 139.441 11.5531C139.36 11.4724 139.251 11.4271 139.137 11.4271H136.985C135.901 11.3731 134.84 11.7502 134.034 12.476C133.227 13.2018 132.741 14.2173 132.681 15.3006V17.6247H130.529C130.415 17.6247 130.305 17.6701 130.225 17.7508C130.144 17.8315 130.099 17.941 130.099 18.0551V20.2931C130.099 20.4073 130.144 20.5167 130.225 20.5975C130.305 20.6782 130.415 20.7235 130.529 20.7235H132.681V26.4907C132.681 26.6049 132.726 26.7144 132.807 26.7951C132.888 26.8758 132.997 26.9211 133.111 26.9211H135.694C135.808 26.9211 135.917 26.8758 135.998 26.7951C136.079 26.7144 136.124 26.6049 136.124 26.4907V20.7235H138.379C138.475 20.7249 138.568 20.6943 138.645 20.6366C138.721 20.579 138.776 20.4975 138.801 20.405L139.421 18.167C139.438 18.1034 139.44 18.0367 139.428 17.9721C139.415 17.9075 139.388 17.8466 139.348 17.7943C139.308 17.7419 139.256 17.6993 139.197 17.6699C139.138 17.6406 139.074 17.6251 139.008 17.6247H136.124V15.3006C136.146 15.0875 136.246 14.8901 136.405 14.7469C136.564 14.6036 136.771 14.5248 136.985 14.5259H139.137C139.251 14.5259 139.36 14.4806 139.441 14.3998C139.522 14.3191 139.567 14.2097 139.567 14.0955V11.8575Z" fill="#101011"/>
<path d="M139.567 11.8575C139.567 11.7433 139.522 11.6339 139.441 11.5531C139.36 11.4724 139.251 11.4271 139.137 11.4271H136.985C135.901 11.3731 134.84 11.7502 134.034 12.476C133.227 13.2018 132.741 14.2173 132.681 15.3006V17.6247H130.529C130.415 17.6247 130.305 17.6701 130.225 17.7508C130.144 17.8315 130.099 17.941 130.099 18.0551V20.2931C130.099 20.4073 130.144 20.5167 130.225 20.5975C130.305 20.6782 130.415 20.7235 130.529 20.7235H132.681V26.4907C132.681 26.6049 132.726 26.7144 132.807 26.7951C132.888 26.8758 132.997 26.9211 133.111 26.9211H135.694C135.808 26.9211 135.917 26.8758 135.998 26.7951C136.079 26.7144 136.124 26.6049 136.124 26.4907V20.7235H138.379C138.475 20.7249 138.568 20.6943 138.645 20.6366C138.721 20.579 138.776 20.4975 138.801 20.405L139.421 18.167C139.438 18.1034 139.44 18.0367 139.428 17.9721C139.415 17.9075 139.388 17.8466 139.348 17.7943C139.308 17.7419 139.256 17.6993 139.197 17.6699C139.138 17.6406 139.074 17.6251 139.008 17.6247H136.124V15.3006C136.146 15.0875 136.246 14.8901 136.405 14.7469C136.564 14.6036 136.771 14.5248 136.985 14.5259H139.137C139.251 14.5259 139.36 14.4806 139.441 14.3998C139.522 14.3191 139.567 14.2097 139.567 14.0955V11.8575Z" fill="#101011" fill-opacity="0.2"/>
<circle cx="191" cy="20" r="20" fill="#ECF0F6"/>
<path d="M198.899 17.5515C198.89 16.8833 198.765 16.2218 198.529 15.5964C198.325 15.069 198.013 14.59 197.613 14.19C197.213 13.79 196.734 13.4778 196.206 13.2734C195.589 13.0417 194.937 12.9164 194.278 12.9029C193.429 12.865 193.16 12.8544 191.005 12.8544C188.851 12.8544 188.575 12.8544 187.732 12.9029C187.073 12.9165 186.422 13.0418 185.805 13.2734C185.277 13.4777 184.798 13.7898 184.398 14.1898C183.998 14.5898 183.686 15.0689 183.482 15.5964C183.249 16.2133 183.124 16.8652 183.112 17.5242C183.074 18.3738 183.062 18.6429 183.062 20.7974C183.062 22.9518 183.062 23.2271 183.112 24.0706C183.125 24.7305 183.25 25.3816 183.482 26.0001C183.686 26.5274 183.998 27.0063 184.399 27.4062C184.799 27.806 185.278 28.118 185.805 28.3222C186.421 28.5632 187.073 28.6975 187.733 28.7192C188.583 28.7571 188.852 28.7686 191.006 28.7686C193.161 28.7686 193.437 28.7686 194.28 28.7192C194.939 28.7062 195.591 28.5812 196.208 28.3495C196.736 28.1449 197.214 27.8327 197.614 27.4327C198.014 27.0328 198.327 26.5538 198.531 26.0265C198.763 25.4089 198.888 24.7578 198.901 24.097C198.939 23.2483 198.95 22.9792 198.95 20.8238C198.948 18.6694 198.948 18.3959 198.899 17.5515ZM191 24.8716C188.747 24.8716 186.922 23.0463 186.922 20.793C186.922 18.5397 188.747 16.7143 191 16.7143C192.082 16.7143 193.119 17.144 193.884 17.9089C194.649 18.6738 195.079 19.7112 195.079 20.793C195.079 21.8747 194.649 22.9121 193.884 23.677C193.119 24.4419 192.082 24.8716 191 24.8716ZM195.241 17.5145C195.116 17.5146 194.993 17.4901 194.877 17.4423C194.762 17.3946 194.657 17.3245 194.568 17.2362C194.48 17.1478 194.41 17.0429 194.362 16.9275C194.315 16.8121 194.29 16.6883 194.29 16.5634C194.29 16.4386 194.315 16.3149 194.363 16.1996C194.41 16.0843 194.48 15.9795 194.569 15.8912C194.657 15.8029 194.762 15.7329 194.877 15.6851C194.992 15.6373 195.116 15.6128 195.241 15.6128C195.366 15.6128 195.489 15.6373 195.605 15.6851C195.72 15.7329 195.825 15.8029 195.913 15.8912C196.001 15.9795 196.071 16.0843 196.119 16.1996C196.167 16.3149 196.191 16.4386 196.191 16.5634C196.191 17.0892 195.766 17.5145 195.241 17.5145Z" fill="#101011"/>
<path d="M198.899 17.5515C198.89 16.8833 198.765 16.2218 198.529 15.5964C198.325 15.069 198.013 14.59 197.613 14.19C197.213 13.79 196.734 13.4778 196.206 13.2734C195.589 13.0417 194.937 12.9164 194.278 12.9029C193.429 12.865 193.16 12.8544 191.005 12.8544C188.851 12.8544 188.575 12.8544 187.732 12.9029C187.073 12.9165 186.422 13.0418 185.805 13.2734C185.277 13.4777 184.798 13.7898 184.398 14.1898C183.998 14.5898 183.686 15.0689 183.482 15.5964C183.249 16.2133 183.124 16.8652 183.112 17.5242C183.074 18.3738 183.062 18.6429 183.062 20.7974C183.062 22.9518 183.062 23.2271 183.112 24.0706C183.125 24.7305 183.25 25.3816 183.482 26.0001C183.686 26.5274 183.998 27.0063 184.399 27.4062C184.799 27.806 185.278 28.118 185.805 28.3222C186.421 28.5632 187.073 28.6975 187.733 28.7192C188.583 28.7571 188.852 28.7686 191.006 28.7686C193.161 28.7686 193.437 28.7686 194.28 28.7192C194.939 28.7062 195.591 28.5812 196.208 28.3495C196.736 28.1449 197.214 27.8327 197.614 27.4327C198.014 27.0328 198.327 26.5538 198.531 26.0265C198.763 25.4089 198.888 24.7578 198.901 24.097C198.939 23.2483 198.95 22.9792 198.95 20.8238C198.948 18.6694 198.948 18.3959 198.899 17.5515ZM191 24.8716C188.747 24.8716 186.922 23.0463 186.922 20.793C186.922 18.5397 188.747 16.7143 191 16.7143C192.082 16.7143 193.119 17.144 193.884 17.9089C194.649 18.6738 195.079 19.7112 195.079 20.793C195.079 21.8747 194.649 22.9121 193.884 23.677C193.119 24.4419 192.082 24.8716 191 24.8716ZM195.241 17.5145C195.116 17.5146 194.993 17.4901 194.877 17.4423C194.762 17.3946 194.657 17.3245 194.568 17.2362C194.48 17.1478 194.41 17.0429 194.362 16.9275C194.315 16.8121 194.29 16.6883 194.29 16.5634C194.29 16.4386 194.315 16.3149 194.363 16.1996C194.41 16.0843 194.48 15.9795 194.569 15.8912C194.657 15.8029 194.762 15.7329 194.877 15.6851C194.992 15.6373 195.116 15.6128 195.241 15.6128C195.366 15.6128 195.489 15.6373 195.605 15.6851C195.72 15.7329 195.825 15.8029 195.913 15.8912C196.001 15.9795 196.071 16.0843 196.119 16.1996C196.167 16.3149 196.191 16.4386 196.191 16.5634C196.191 17.0892 195.766 17.5145 195.241 17.5145Z" fill="#101011" fill-opacity="0.2"/>
<path d="M191.001 23.4425C192.464 23.4425 193.65 22.2563 193.65 20.7931C193.65 19.3299 192.464 18.1437 191.001 18.1437C189.538 18.1437 188.352 19.3299 188.352 20.7931C188.352 22.2563 189.538 23.4425 191.001 23.4425Z" fill="#101011"/>
<path d="M191.001 23.4425C192.464 23.4425 193.65 22.2563 193.65 20.7931C193.65 19.3299 192.464 18.1437 191.001 18.1437C189.538 18.1437 188.352 19.3299 188.352 20.7931C188.352 22.2563 189.538 23.4425 191.001 23.4425Z" fill="#101011" fill-opacity="0.2"/>
</svg>
