<svg width="40" height="211" viewBox="0 0 40 211" fill="none" xmlns="http://www.w3.org/2000/svg">
<circle cx="20" cy="20" r="20" fill="#ECF0F6"/>
<path fill-rule="evenodd" clip-rule="evenodd" d="M18.1148 16.7473H21.1718V18.27C21.6122 17.3943 22.7415 16.6074 24.4379 16.6074C27.6899 16.6074 28.462 18.3507 28.462 21.5493V27.4731H25.1696V22.2777C25.1696 20.4562 24.7293 19.429 23.6082 19.429C22.0534 19.429 21.4072 20.536 21.4072 22.2769V27.4731H18.1148V16.7473ZM12.4692 27.3332H15.7616V16.6074H12.4692V27.3332ZM16.2332 13.11C16.2333 13.386 16.1786 13.6592 16.0722 13.9138C15.9658 14.1685 15.8098 14.3994 15.6134 14.5932C15.2154 14.9888 14.6766 15.2103 14.1154 15.2089C13.5552 15.2085 13.0176 14.9877 12.619 14.5941C12.4232 14.3996 12.2678 14.1684 12.1616 13.9137C12.0554 13.6591 12.0005 13.3859 12 13.11C12 12.5528 12.2222 12.0194 12.6198 11.626C13.0181 11.2318 13.5559 11.0109 14.1162 11.0111C14.6775 11.0111 15.2159 11.2325 15.6134 11.626C16.0101 12.0194 16.2332 12.5528 16.2332 13.11Z" fill="#101011"/>
<path fill-rule="evenodd" clip-rule="evenodd" d="M18.1148 16.7473H21.1718V18.27C21.6122 17.3943 22.7415 16.6074 24.4379 16.6074C27.6899 16.6074 28.462 18.3507 28.462 21.5493V27.4731H25.1696V22.2777C25.1696 20.4562 24.7293 19.429 23.6082 19.429C22.0534 19.429 21.4072 20.536 21.4072 22.2769V27.4731H18.1148V16.7473ZM12.4692 27.3332H15.7616V16.6074H12.4692V27.3332ZM16.2332 13.11C16.2333 13.386 16.1786 13.6592 16.0722 13.9138C15.9658 14.1685 15.8098 14.3994 15.6134 14.5932C15.2154 14.9888 14.6766 15.2103 14.1154 15.2089C13.5552 15.2085 13.0176 14.9877 12.619 14.5941C12.4232 14.3996 12.2678 14.1684 12.1616 13.9137C12.0554 13.6591 12.0005 13.3859 12 13.11C12 12.5528 12.2222 12.0194 12.6198 11.626C13.0181 11.2318 13.5559 11.0109 14.1162 11.0111C14.6775 11.0111 15.2159 11.2325 15.6134 11.626C16.0101 12.0194 16.2332 12.5528 16.2332 13.11Z" fill="#101011" fill-opacity="0.2"/>
<circle cx="20" cy="77" r="20" fill="#ECF0F6"/>
<path d="M28.4332 72.1528C27.813 72.4277 27.1467 72.6134 26.4462 72.6973C27.169 72.2649 27.7097 71.5842 27.9675 70.7824C27.2884 71.1857 26.5453 71.4696 25.7703 71.6217C25.2491 71.0653 24.5588 70.6965 23.8066 70.5725C23.0543 70.4486 22.2822 70.5765 21.6101 70.9363C20.938 71.2962 20.4035 71.8679 20.0895 72.5626C19.7756 73.2574 19.6999 74.0364 19.874 74.7786C18.4981 74.7095 17.1522 74.3519 15.9234 73.729C14.6947 73.106 13.6107 72.2317 12.7417 71.1627C12.4446 71.6752 12.2738 72.2695 12.2738 72.9023C12.2734 73.472 12.4137 74.033 12.6822 74.5355C12.9507 75.038 13.3391 75.4665 13.8128 75.7829C13.2634 75.7654 12.726 75.6169 12.2456 75.3498V75.3944C12.2455 76.1934 12.5219 76.9679 13.0278 77.5864C13.5338 78.2048 14.2381 78.6292 15.0214 78.7875C14.5116 78.9254 13.9772 78.9457 13.4585 78.8469C13.6795 79.5344 14.11 80.1356 14.6896 80.5664C15.2693 80.9971 15.9691 81.2358 16.6912 81.2491C15.4654 82.2113 13.9517 82.7332 12.3934 82.7309C12.1173 82.731 11.8415 82.7149 11.5674 82.6827C13.1491 83.6997 14.9904 84.2394 16.8709 84.2373C23.2366 84.2373 26.7166 78.965 26.7166 74.3924C26.7166 74.2438 26.7129 74.0938 26.7062 73.9452C27.3831 73.4557 27.9674 72.8495 28.4317 72.1551L28.4332 72.1528Z" fill="#101011"/>
<path d="M28.4332 72.1528C27.813 72.4277 27.1467 72.6134 26.4462 72.6973C27.169 72.2649 27.7097 71.5842 27.9675 70.7824C27.2884 71.1857 26.5453 71.4696 25.7703 71.6217C25.2491 71.0653 24.5588 70.6965 23.8066 70.5725C23.0543 70.4486 22.2822 70.5765 21.6101 70.9363C20.938 71.2962 20.4035 71.8679 20.0895 72.5626C19.7756 73.2574 19.6999 74.0364 19.874 74.7786C18.4981 74.7095 17.1522 74.3519 15.9234 73.729C14.6947 73.106 13.6107 72.2317 12.7417 71.1627C12.4446 71.6752 12.2738 72.2695 12.2738 72.9023C12.2734 73.472 12.4137 74.033 12.6822 74.5355C12.9507 75.038 13.3391 75.4665 13.8128 75.7829C13.2634 75.7654 12.726 75.6169 12.2456 75.3498V75.3944C12.2455 76.1934 12.5219 76.9679 13.0278 77.5864C13.5338 78.2048 14.2381 78.6292 15.0214 78.7875C14.5116 78.9254 13.9772 78.9457 13.4585 78.8469C13.6795 79.5344 14.11 80.1356 14.6896 80.5664C15.2693 80.9971 15.9691 81.2358 16.6912 81.2491C15.4654 82.2113 13.9517 82.7332 12.3934 82.7309C12.1173 82.731 11.8415 82.7149 11.5674 82.6827C13.1491 83.6997 14.9904 84.2394 16.8709 84.2373C23.2366 84.2373 26.7166 78.965 26.7166 74.3924C26.7166 74.2438 26.7129 74.0938 26.7062 73.9452C27.3831 73.4557 27.9674 72.8495 28.4317 72.1551L28.4332 72.1528Z" fill="#101011" fill-opacity="0.2"/>
<circle cx="20" cy="134" r="20" fill="#ECF0F6"/>
<path d="M25.5672 125.857C25.5672 125.743 25.5219 125.634 25.4412 125.553C25.3604 125.472 25.251 125.427 25.1368 125.427H22.9849C21.9013 125.373 20.8403 125.75 20.0339 126.476C19.2274 127.202 18.741 128.217 18.681 129.301V131.625H16.529C16.4149 131.625 16.3054 131.67 16.2247 131.751C16.144 131.831 16.0986 131.941 16.0986 132.055V134.293C16.0986 134.407 16.144 134.517 16.2247 134.597C16.3054 134.678 16.4149 134.724 16.529 134.724H18.681V140.491C18.681 140.605 18.7263 140.714 18.807 140.795C18.8877 140.876 18.9972 140.921 19.1114 140.921H21.6937C21.8079 140.921 21.9173 140.876 21.998 140.795C22.0788 140.714 22.1241 140.605 22.1241 140.491V134.724H24.3793C24.4751 134.725 24.5685 134.694 24.6449 134.637C24.7213 134.579 24.7762 134.497 24.8011 134.405L25.4209 132.167C25.438 132.103 25.4403 132.037 25.4276 131.972C25.4149 131.907 25.3876 131.847 25.3476 131.794C25.3077 131.742 25.2563 131.699 25.1974 131.67C25.1385 131.641 25.0736 131.625 25.0077 131.625H22.1241V129.301C22.1455 129.088 22.2456 128.89 22.4047 128.747C22.5639 128.604 22.7707 128.525 22.9849 128.526H25.1368C25.251 128.526 25.3604 128.481 25.4412 128.4C25.5219 128.319 25.5672 128.21 25.5672 128.096V125.857Z" fill="#101011"/>
<path d="M25.5672 125.857C25.5672 125.743 25.5219 125.634 25.4412 125.553C25.3604 125.472 25.251 125.427 25.1368 125.427H22.9849C21.9013 125.373 20.8403 125.75 20.0339 126.476C19.2274 127.202 18.741 128.217 18.681 129.301V131.625H16.529C16.4149 131.625 16.3054 131.67 16.2247 131.751C16.144 131.831 16.0986 131.941 16.0986 132.055V134.293C16.0986 134.407 16.144 134.517 16.2247 134.597C16.3054 134.678 16.4149 134.724 16.529 134.724H18.681V140.491C18.681 140.605 18.7263 140.714 18.807 140.795C18.8877 140.876 18.9972 140.921 19.1114 140.921H21.6937C21.8079 140.921 21.9173 140.876 21.998 140.795C22.0788 140.714 22.1241 140.605 22.1241 140.491V134.724H24.3793C24.4751 134.725 24.5685 134.694 24.6449 134.637C24.7213 134.579 24.7762 134.497 24.8011 134.405L25.4209 132.167C25.438 132.103 25.4403 132.037 25.4276 131.972C25.4149 131.907 25.3876 131.847 25.3476 131.794C25.3077 131.742 25.2563 131.699 25.1974 131.67C25.1385 131.641 25.0736 131.625 25.0077 131.625H22.1241V129.301C22.1455 129.088 22.2456 128.89 22.4047 128.747C22.5639 128.604 22.7707 128.525 22.9849 128.526H25.1368C25.251 128.526 25.3604 128.481 25.4412 128.4C25.5219 128.319 25.5672 128.21 25.5672 128.096V125.857Z" fill="#101011" fill-opacity="0.2"/>
<circle cx="20" cy="191" r="20" fill="#ECF0F6"/>
<path d="M27.8991 188.552C27.8902 187.883 27.7651 187.222 27.5294 186.596C27.325 186.069 27.0129 185.59 26.6129 185.19C26.2129 184.79 25.7339 184.478 25.2064 184.273C24.5891 184.042 23.937 183.916 23.2778 183.903C22.4291 183.865 22.16 183.854 20.0055 183.854C17.851 183.854 17.5749 183.854 16.7323 183.903C16.0734 183.917 15.4216 184.042 14.8046 184.273C14.277 184.478 13.7979 184.79 13.3979 185.19C12.9979 185.59 12.6858 186.069 12.4816 186.596C12.2494 187.213 12.1244 187.865 12.1119 188.524C12.074 189.374 12.0625 189.643 12.0625 191.797C12.0625 193.952 12.0625 194.227 12.1119 195.071C12.1251 195.73 12.2495 196.382 12.4816 197C12.6862 197.527 12.9985 198.006 13.3986 198.406C13.7988 198.806 14.2779 199.118 14.8054 199.322C15.4208 199.563 16.0727 199.697 16.7332 199.719C17.5828 199.757 17.8519 199.769 20.0064 199.769C22.1609 199.769 22.437 199.769 23.2796 199.719C23.9388 199.706 24.5909 199.581 25.2082 199.35C25.7355 199.145 26.2144 198.833 26.6144 198.433C27.0143 198.033 27.3266 197.554 27.5312 197.027C27.7632 196.409 27.8876 195.758 27.9009 195.097C27.9388 194.248 27.9503 193.979 27.9503 191.824C27.9485 189.669 27.9485 189.396 27.8991 188.552ZM20.0002 195.872C17.7469 195.872 15.9215 194.046 15.9215 191.793C15.9215 189.54 17.7469 187.714 20.0002 187.714C21.0819 187.714 22.1194 188.144 22.8843 188.909C23.6492 189.674 24.0789 190.711 24.0789 191.793C24.0789 192.875 23.6492 193.912 22.8843 194.677C22.1194 195.442 21.0819 195.872 20.0002 195.872ZM24.2412 188.514C24.1163 188.515 23.9926 188.49 23.8771 188.442C23.7617 188.395 23.6568 188.325 23.5685 188.236C23.4801 188.148 23.4101 188.043 23.3623 187.927C23.3146 187.812 23.29 187.688 23.2902 187.563C23.2902 187.439 23.3147 187.315 23.3625 187.2C23.4103 187.084 23.4803 186.979 23.5686 186.891C23.6569 186.803 23.7617 186.733 23.877 186.685C23.9923 186.637 24.116 186.613 24.2408 186.613C24.3656 186.613 24.4892 186.637 24.6046 186.685C24.7199 186.733 24.8247 186.803 24.913 186.891C25.0013 186.979 25.0713 187.084 25.1191 187.2C25.1668 187.315 25.1914 187.439 25.1914 187.563C25.1914 188.089 24.7662 188.514 24.2412 188.514Z" fill="#101011"/>
<path d="M27.8991 188.552C27.8902 187.883 27.7651 187.222 27.5294 186.596C27.325 186.069 27.0129 185.59 26.6129 185.19C26.2129 184.79 25.7339 184.478 25.2064 184.273C24.5891 184.042 23.937 183.916 23.2778 183.903C22.4291 183.865 22.16 183.854 20.0055 183.854C17.851 183.854 17.5749 183.854 16.7323 183.903C16.0734 183.917 15.4216 184.042 14.8046 184.273C14.277 184.478 13.7979 184.79 13.3979 185.19C12.9979 185.59 12.6858 186.069 12.4816 186.596C12.2494 187.213 12.1244 187.865 12.1119 188.524C12.074 189.374 12.0625 189.643 12.0625 191.797C12.0625 193.952 12.0625 194.227 12.1119 195.071C12.1251 195.73 12.2495 196.382 12.4816 197C12.6862 197.527 12.9985 198.006 13.3986 198.406C13.7988 198.806 14.2779 199.118 14.8054 199.322C15.4208 199.563 16.0727 199.697 16.7332 199.719C17.5828 199.757 17.8519 199.769 20.0064 199.769C22.1609 199.769 22.437 199.769 23.2796 199.719C23.9388 199.706 24.5909 199.581 25.2082 199.35C25.7355 199.145 26.2144 198.833 26.6144 198.433C27.0143 198.033 27.3266 197.554 27.5312 197.027C27.7632 196.409 27.8876 195.758 27.9009 195.097C27.9388 194.248 27.9503 193.979 27.9503 191.824C27.9485 189.669 27.9485 189.396 27.8991 188.552ZM20.0002 195.872C17.7469 195.872 15.9215 194.046 15.9215 191.793C15.9215 189.54 17.7469 187.714 20.0002 187.714C21.0819 187.714 22.1194 188.144 22.8843 188.909C23.6492 189.674 24.0789 190.711 24.0789 191.793C24.0789 192.875 23.6492 193.912 22.8843 194.677C22.1194 195.442 21.0819 195.872 20.0002 195.872ZM24.2412 188.514C24.1163 188.515 23.9926 188.49 23.8771 188.442C23.7617 188.395 23.6568 188.325 23.5685 188.236C23.4801 188.148 23.4101 188.043 23.3623 187.927C23.3146 187.812 23.29 187.688 23.2902 187.563C23.2902 187.439 23.3147 187.315 23.3625 187.2C23.4103 187.084 23.4803 186.979 23.5686 186.891C23.6569 186.803 23.7617 186.733 23.877 186.685C23.9923 186.637 24.116 186.613 24.2408 186.613C24.3656 186.613 24.4892 186.637 24.6046 186.685C24.7199 186.733 24.8247 186.803 24.913 186.891C25.0013 186.979 25.0713 187.084 25.1191 187.2C25.1668 187.315 25.1914 187.439 25.1914 187.563C25.1914 188.089 24.7662 188.514 24.2412 188.514Z" fill="#101011" fill-opacity="0.2"/>
<path d="M20.001 194.443C21.4642 194.443 22.6504 193.256 22.6504 191.793C22.6504 190.33 21.4642 189.144 20.001 189.144C18.5378 189.144 17.3516 190.33 17.3516 191.793C17.3516 193.256 18.5378 194.443 20.001 194.443Z" fill="#101011"/>
<path d="M20.001 194.443C21.4642 194.443 22.6504 193.256 22.6504 191.793C22.6504 190.33 21.4642 189.144 20.001 189.144C18.5378 189.144 17.3516 190.33 17.3516 191.793C17.3516 193.256 18.5378 194.443 20.001 194.443Z" fill="#101011" fill-opacity="0.2"/>
</svg>
