<svg width="96" height="16" viewBox="0 0 96 16" fill="none" xmlns="http://www.w3.org/2000/svg">
<path d="M15.9583 6.34345C15.8535 6.02708 15.5662 5.80237 15.2262 5.77245L10.6082 5.36298L8.78207 1.18919C8.64742 0.883305 8.34077 0.685303 8.00006 0.685303C7.65936 0.685303 7.35271 0.883305 7.21806 1.1899L5.39197 5.36298L0.77321 5.77245C0.433846 5.80309 0.147218 6.02708 0.0418691 6.34345C-0.0634801 6.65983 0.0338122 7.00684 0.290532 7.22558L3.78121 10.215L2.75189 14.6427C2.67657 14.9683 2.80597 15.3048 3.08259 15.5001C3.23128 15.605 3.40523 15.6584 3.58065 15.6584C3.7319 15.6584 3.88193 15.6186 4.01657 15.5399L8.00006 13.215L11.9821 15.5399C12.2735 15.7111 12.6408 15.6955 12.9168 15.5001C13.1935 15.3042 13.3228 14.9676 13.2475 14.6427L12.2182 10.215L15.7089 7.22618C15.9656 7.00684 16.0636 6.66042 15.9583 6.34345Z" fill="#FFC107"/>
<path d="M55.9583 6.34345C55.8535 6.02708 55.5662 5.80237 55.2262 5.77245L50.6082 5.36298L48.7821 1.18919C48.6474 0.883305 48.3408 0.685303 48.0001 0.685303C47.6594 0.685303 47.3527 0.883305 47.2181 1.1899L45.392 5.36298L40.7732 5.77245C40.4338 5.80309 40.1472 6.02708 40.0419 6.34345C39.9365 6.65983 40.0338 7.00684 40.2905 7.22558L43.7812 10.215L42.7519 14.6427C42.6766 14.9683 42.806 15.3048 43.0826 15.5001C43.2313 15.605 43.4052 15.6584 43.5806 15.6584C43.7319 15.6584 43.8819 15.6186 44.0166 15.5399L48.0001 13.215L51.9821 15.5399C52.2735 15.7111 52.6408 15.6955 52.9168 15.5001C53.1935 15.3042 53.3228 14.9676 53.2475 14.6427L52.2182 10.215L55.7089 7.22618C55.9656 7.00684 56.0636 6.66042 55.9583 6.34345Z" fill="#FFC107"/>
<path d="M35.9583 6.34345C35.8535 6.02708 35.5662 5.80237 35.2262 5.77245L30.6082 5.36298L28.7821 1.18919C28.6474 0.883305 28.3408 0.685303 28.0001 0.685303C27.6594 0.685303 27.3527 0.883305 27.2181 1.1899L25.392 5.36298L20.7732 5.77245C20.4338 5.80309 20.1472 6.02708 20.0419 6.34345C19.9365 6.65983 20.0338 7.00684 20.2905 7.22558L23.7812 10.215L22.7519 14.6427C22.6766 14.9683 22.806 15.3048 23.0826 15.5001C23.2313 15.605 23.4052 15.6584 23.5806 15.6584C23.7319 15.6584 23.8819 15.6186 24.0166 15.5399L28.0001 13.215L31.9821 15.5399C32.2735 15.7111 32.6408 15.6955 32.9168 15.5001C33.1935 15.3042 33.3228 14.9676 33.2475 14.6427L32.2182 10.215L35.7089 7.22618C35.9656 7.00684 36.0636 6.66042 35.9583 6.34345Z" fill="#FFC107"/>
<path d="M75.9583 6.34345C75.8535 6.02708 75.5662 5.80237 75.2262 5.77245L70.6082 5.36298L68.7821 1.18919C68.6474 0.883305 68.3408 0.685303 68.0001 0.685303C67.6594 0.685303 67.3527 0.883305 67.2181 1.1899L65.392 5.36298L60.7732 5.77245C60.4338 5.80309 60.1472 6.02708 60.0419 6.34345C59.9365 6.65983 60.0338 7.00684 60.2905 7.22558L63.7812 10.215L62.7519 14.6427C62.6766 14.9683 62.806 15.3048 63.0826 15.5001C63.2313 15.605 63.4052 15.6584 63.5806 15.6584C63.7319 15.6584 63.8819 15.6186 64.0166 15.5399L68.0001 13.215L71.9821 15.5399C72.2735 15.7111 72.6408 15.6955 72.9168 15.5001C73.1935 15.3042 73.3228 14.9676 73.2475 14.6427L72.2182 10.215L75.7089 7.22618C75.9656 7.00684 76.0636 6.66042 75.9583 6.34345Z" fill="#FFC107"/>
<path d="M95.9583 6.34345C95.8535 6.02708 95.5662 5.80237 95.2262 5.77245L90.6082 5.36298L88.7821 1.18919C88.6474 0.883305 88.3408 0.685303 88.0001 0.685303C87.6594 0.685303 87.3527 0.883305 87.2181 1.1899L85.392 5.36298L80.7732 5.77245C80.4338 5.80309 80.1472 6.02708 80.0419 6.34345C79.9365 6.65983 80.0338 7.00684 80.2905 7.22558L83.7812 10.215L82.7519 14.6427C82.6766 14.9683 82.806 15.3048 83.0826 15.5001C83.2313 15.605 83.4052 15.6584 83.5806 15.6584C83.7319 15.6584 83.8819 15.6186 84.0166 15.5399L88.0001 13.215L91.9821 15.5399C92.2735 15.7111 92.6408 15.6955 92.9168 15.5001C93.1935 15.3042 93.3228 14.9676 93.2475 14.6427L92.2182 10.215L95.7089 7.22618C95.9656 7.00684 96.0636 6.66042 95.9583 6.34345Z" fill="#DEDEDE"/>
</svg>
