<svg width="24" height="25" viewBox="0 0 24 25" fill="none" xmlns="http://www.w3.org/2000/svg">
<path d="M16.23 18.645L12 16.095L7.77 18.645L8.89 13.835L5.16 10.605L10.08 10.185L12 5.64502L13.92 10.175L18.84 10.595L15.11 13.825L16.23 18.645ZM12 2.64502C6.47 2.64502 2 7.14502 2 12.645C2 15.2972 3.05357 17.8407 4.92893 19.7161C5.85752 20.6447 6.95991 21.3813 8.17317 21.8838C9.38642 22.3864 10.6868 22.645 12 22.645C14.6522 22.645 17.1957 21.5915 19.0711 19.7161C20.9464 17.8407 22 15.2972 22 12.645C22 11.3318 21.7413 10.0314 21.2388 8.81818C20.7362 7.60493 19.9997 6.50254 19.0711 5.57395C18.1425 4.64537 17.0401 3.90877 15.8268 3.40622C14.6136 2.90368 13.3132 2.64502 12 2.64502Z" fill="#101011"/>
</svg>
